<?xml version="1.0" encoding="UTF-8"?>
<svg width="538px" height="71px" viewBox="0 0 538 71" version="1.1" xmlns="http://www.w3.org/2000/svg" xmlns:xlink="http://www.w3.org/1999/xlink">
    <!-- Generator: Sketch 52.3 (67297) - http://www.bohemiancoding.com/sketch -->
    <title>Group 14</title>
    <desc>Created with Sketch.</desc>
    <g id="Page-1" stroke="none" stroke-width="1" fill="none" fill-rule="evenodd">
        <g id="Desktop-HD" transform="translate(-18.000000, -4286.000000)">
            <g id="Group-21" transform="translate(18.000000, 3883.000000)">
                <g id="Group-14" transform="translate(0.000000, 403.234000)">
                    <g id="Group-25">
                        <path d="M537.867,57.4737255 C537.867,57.4737255 483.568,66.4207255 384.962,69.1657255 C286.356,71.9117255 1.788,69.1657255 1.788,69.1657255 L1.13686838e-13,24.9967255 C1.13686838e-13,24.9967255 25.289,21.0877255 30.067,34.5537255 C30.067,34.5537255 71.985,-8.45027454 119.985,35.8567255 C119.985,35.8567255 124.981,46.2827255 146.483,33.6847255 C167.985,21.0877255 169.94,12.3997255 191.659,19.3497255 C191.659,19.3497255 253.777,-32.3422745 273.325,33.2507255 C273.325,33.2507255 296.781,26.3007255 317.632,53.6667255 C317.632,53.6667255 325.668,69.7397255 346.193,51.9297255 C366.718,34.1197255 394.424,11.0967255 418.363,48.8887255 C418.363,48.8887255 443.164,32.1767255 457.285,57.4737255 C457.285,57.4737255 533.089,37.3897255 537.867,57.4737255" id="Fill-12" fill="#462B6E" opacity="0.1"></path>
                        <path d="M64.6352974,35.1809407 C64.6352974,35.1809407 74.596083,24.5350585 92.2570814,20.1555882 C104.74806,17.0581491 117.966724,19.1708637 124.513412,20.3922252" id="Fill-15" fill="#FF5252" opacity="0.15" transform="translate(94.574354, 26.863797) rotate(35.000000) translate(-94.574354, -26.863797) "></path>
                        <path d="M191.6594,19.3502255 C191.6594,19.3502255 206.122091,7.0238614 222.8029,2.60846843 C229.251853,0.901437176 234.439841,-0.614074542 244.323142,0.901437176 C248.460083,1.53579839 251.835903,3.83103299 253.9464,4.30422546" id="Fill-17" fill="#FF5252" opacity="0.15"></path>
                        <path d="M151.746366,24.1949309 C151.746366,24.1949309 154.590366,43.3189309 137.649366,43.7529309" id="Fill-19" fill="#FF5252" opacity="0.15" transform="translate(144.787709, 33.973931) rotate(25.000000) translate(-144.787709, -33.973931) "></path>
                    </g>
                </g>
            </g>
        </g>
    </g>
</svg>