<?xml version="1.0" encoding="UTF-8"?>
<svg width="139px" height="262px" viewBox="0 0 139 262" version="1.1" xmlns="http://www.w3.org/2000/svg" xmlns:xlink="http://www.w3.org/1999/xlink">
    <!-- Generator: Sketch 57.1 (83088) - https://sketch.com -->
    <title>2-01</title>
    <desc>Created with Sketch.</desc>
    <g id="Page-1" stroke="none" stroke-width="1" fill="none" fill-rule="evenodd">
        <g id="Desktop-HD" transform="translate(-651.000000, -2815.000000)" fill-rule="nonzero">
            <g id="Group-7" transform="translate(544.000000, 2815.000000)">
                <g id="2-01" transform="translate(107.000000, 0.000000)">
                    <ellipse id="Oval" fill="#1D1D1D" opacity="0.4" cx="70" cy="252" rx="66" ry="10"></ellipse>
                    <g id="Group">
                        <g transform="translate(4.599265, 192.977597)">
                            <g transform="translate(8.687500, 5.132383)">
                                <polygon id="Rectangle" fill="#161616" transform="translate(13.463604, 4.482133) rotate(7.365945) translate(-13.463604, -4.482133) " points="1.01855659 2.29429072 25.906264 2.30796769 25.9086512 6.66997543 1.02094374 6.65629846"></polygon>
                                <path d="M25.9602941,8.82769857 L0.306617647,5.49164969 L0.970955882,0.153971487 L26.6246324,3.49002037 L25.9602941,8.82769857 Z M1.43088235,4.6191446 L25.0915441,7.69857434 L25.5003676,4.36252546 L1.83970588,1.28309572 L1.43088235,4.6191446 Z" id="Shape" fill="#000000"></path>
                            </g>
                            <g>
                                <polygon id="Path" fill="#161616" points="10.4761029 1.69368635 3.16838235 0.769857434 1.68639706 3.13075356 7.00110294 3.79796334 8.99411765 7.95519348 6.03014706 11.4452138 0.715441176 10.7266802 1.53308824 13.3955193 8.84080882 14.3706721 13.2867647 8.46843177"></polygon>
                                <path d="M9.04522059,14.8839104 L1.17536765,13.8574338 L-2.84217094e-14,10.1107943 L5.82573529,10.8806517 L8.38088235,7.85254582 L6.64338235,4.2598778 L0.817647059,3.49002037 L2.91286765,0.205295316 L10.7827206,1.23177189 L13.8488971,8.57107943 L9.04522059,14.8839104 Z M1.94191176,12.9336049 L8.63639706,13.80611 L12.7246324,8.41710794 L10.1183824,2.15560081 L3.42389706,1.28309572 L2.50404412,2.72016293 L7.30772059,3.33604888 L9.55625,8.00651731 L6.18345588,11.9584521 L1.37977941,11.3425662 L1.94191176,12.9336049 Z" id="Shape" fill="#000000"></path>
                            </g>
                            <g transform="translate(30.150735, 4.105906)">
                                <polygon id="Path" fill="#161616" points="5.31470588 0.821181263 12.5713235 1.79633401 13.4400735 4.46517312 8.12536765 3.74663951 5.16139706 7.23665988 7.15441176 11.39389 12.4691176 12.0610998 10.9360294 14.4219959 3.67941176 13.498167 0.86875 6.67209776"></polygon>
                                <path d="M11.1915441,14.986558 L3.32169118,13.9600815 L0.255514706,6.62077393 L5.05919118,0.307942974 L12.9290441,1.33441955 L14.1044118,5.08105906 L8.27867647,4.31120163 L5.72352941,7.33930754 L7.46102941,10.9319756 L13.2867647,11.701833 L11.1915441,14.986558 Z M4.03713235,13.0362525 L10.7316176,13.9087576 L11.6514706,12.4716904 L6.84779412,11.8558045 L4.59926471,7.18533605 L7.97205882,3.23340122 L12.7757353,3.84928717 L12.2647059,2.25824847 L5.57022059,1.38574338 L1.48198529,6.77474542 L4.03713235,13.0362525 Z" id="Shape" fill="#000000"></path>
                            </g>
                        </g>
                        <g>
                            <path d="M25.7558824,164.698167 C53.6580882,178.196334 85.3419118,178.196334 113.295221,164.698167 C113.295221,131.645621 113.295221,98.5930754 113.295221,65.5405295 C84.1154412,65.5405295 54.9356618,65.5405295 25.7558824,65.5405295 C25.7558824,98.5930754 25.7558824,131.645621 25.7558824,164.698167 Z" id="Path" fill="#723912"></path>
                            <g>
                                <g transform="translate(20.441176, 142.680244)">
                                    <path d="M6.18345588,55.0704684 C6.13235294,55.0704684 6.08125,55.0704684 6.03014706,55.0704684 C3.475,55.0191446 1.48198529,52.8635438 1.53308824,50.2973523 C2.09522059,30.6403259 11.0893382,18.7331976 18.4992647,12.2663951 C26.5735294,5.23503055 34.5455882,2.87413442 34.9033088,2.77148676 C37.35625,2.05295316 39.9113971,3.49002037 40.6268382,5.95356415 C41.3422794,8.41710794 39.9113971,10.9832994 37.4584559,11.701833 C36.3852941,12.009776 11.6514706,19.7596741 10.7827206,50.6052953 C10.7316176,53.0688391 8.63639706,55.0704684 6.18345588,55.0704684 Z" id="Path" fill="#FDDAC0"></path>
                                    <path d="M12.1113971,59.3816701 C10.6805147,64.3087576 9.50514706,63.898167 6.23455882,63.898167 C3.01507353,63.898167 0.357720588,63.898167 0.357720588,59.3816701 C0.357720588,54.8651731 2.96397059,49.2708758 6.23455882,49.2708758 C9.50514706,49.2708758 12.1113971,54.9164969 12.1113971,59.3816701 Z" id="Path" fill="#E8B891"></path>
                                    <path d="M14.9731618,56.7641548 C15.2797794,56.9181263 15.3308824,57.4826884 15.0753676,57.9959267 L15.0753676,57.9959267 C14.8198529,58.5604888 14.3599265,58.8684318 14.0533088,58.7144603 L9.65845588,56.712831 C9.35183824,56.5588595 9.30073529,55.9942974 9.55625,55.4810591 L9.55625,55.4810591 C9.81176471,54.9164969 10.2716912,54.608554 10.5783088,54.7625255 L14.9731618,56.7641548 Z" id="Path" fill="#E8B891"></path>
                                    <rect id="Rectangle" fill="#212121" x="1.22647059" y="48.4496945" width="10.0672794" height="3.28472505"></rect>
                                    <path d="M12.3669118,50.5539715 L0.562132353,50.1433809 C1.22647059,29.7678208 10.3738971,17.6553971 17.8860294,11.085947 C26.1136029,3.900611 36.6408088,0.513238289 36.9474265,0.410590631 L37.7139706,12.9336049 L36.1808824,7.23665988 L37.7650735,12.9336049 C36.7941176,13.190224 13.3889706,20.2729124 12.3669118,50.5539715 Z" id="Path" fill="#FF1A03"></path>
                                </g>
                                <g transform="translate(77.676471, 142.680244)">
                                    <path d="M34.75,55.0704684 C32.2459559,55.0704684 30.2018382,53.0688391 30.0996324,50.5539715 C29.2308824,19.7083503 4.44595588,12.009776 3.42389706,11.6505092 C0.970955882,10.9319756 -0.408823529,8.36578411 0.306617647,5.90224033 C1.02205882,3.43869654 3.57720588,2.00162933 6.03014706,2.72016293 C6.38786765,2.82281059 14.3599265,5.18370672 22.4341912,12.2150713 C29.8441176,18.7331976 38.8382353,30.589002 39.4003676,50.2460285 C39.4514706,52.81222 37.4584559,54.9678208 34.9033088,55.0191446 C34.8522059,55.0704684 34.8011029,55.0704684 34.75,55.0704684 Z" id="Path" fill="#E8B891"></path>
                                    <path d="M28.7709559,56.6101833 C30.2018382,60.1515275 31.3772059,59.8435845 34.6477941,59.8435845 C37.8672794,59.8435845 40.5246324,59.8435845 40.5246324,56.6101833 C40.5246324,53.3767821 37.9183824,49.3221996 34.6477941,49.3221996 C31.4283088,49.2708758 28.7709559,53.3254582 28.7709559,56.6101833 Z" id="Path" fill="#E8B891"></path>
                                    <path d="M38.3783088,63.4875764 C38.3783088,64.0008147 38.7871324,64.3600815 39.2470588,64.3600815 L39.2470588,64.3600815 C39.7580882,64.3600815 40.1158088,63.9494908 40.1158088,63.4875764 L40.1158088,56.6101833 C40.1158088,56.096945 39.7069853,55.7376782 39.2470588,55.7376782 L39.2470588,55.7376782 C38.7360294,55.7376782 38.3783088,56.1482688 38.3783088,56.6101833 L38.3783088,63.4875764 Z" id="Path" fill="#E8B891"></path>
                                    <path d="M35.61875,65.8997963 C35.61875,66.4130346 36.0275735,66.7723014 36.4875,66.7723014 L36.4875,66.7723014 C36.9985294,66.7723014 37.35625,66.3617108 37.35625,65.8997963 L37.35625,59.0224033 C37.35625,58.509165 36.9474265,58.1498982 36.4875,58.1498982 L36.4875,58.1498982 C35.9764706,58.1498982 35.61875,58.5604888 35.61875,59.0224033 L35.61875,65.8997963 Z" id="Path" fill="#E8B891"></path>
                                    <path d="M32.8080882,66.7723014 C32.8080882,67.2855397 33.2169118,67.6448065 33.6768382,67.6448065 L33.6768382,67.6448065 C34.1878676,67.6448065 34.5455882,67.2342159 34.5455882,66.7723014 L34.5455882,59.8949084 C34.5455882,59.3816701 34.1367647,59.0224033 33.6768382,59.0224033 L33.6768382,59.0224033 C33.1658088,59.0224033 32.8080882,59.4329939 32.8080882,59.8949084 L32.8080882,66.7723014 Z" id="Path" fill="#E8B891"></path>
                                    <path d="M30.0485294,65.3352342 C30.0485294,65.8484725 30.4573529,66.2077393 30.9172794,66.2077393 L30.9172794,66.2077393 C31.4283088,66.2077393 31.7860294,65.7971487 31.7860294,65.3352342 L31.7860294,58.4578411 C31.7860294,57.9446029 31.3772059,57.585336 30.9172794,57.585336 L30.9172794,57.585336 C30.40625,57.585336 30.0485294,57.9959267 30.0485294,58.4578411 L30.0485294,65.3352342 Z" id="Path" fill="#E8B891"></path>
                                    <path d="M25.9091912,56.7641548 C25.6025735,56.9181263 25.5514706,57.4826884 25.8069853,57.9959267 L25.8069853,57.9959267 C26.0625,58.5604888 26.5224265,58.8684318 26.8290441,58.7144603 L31.2238971,56.712831 C31.5305147,56.5588595 31.5816176,55.9942974 31.3261029,55.4810591 L31.3261029,55.4810591 C31.0705882,54.9164969 30.6106618,54.608554 30.3040441,54.7625255 L25.9091912,56.7641548 Z" id="Path" fill="#E8B891"></path>
                                    <rect id="Rectangle" fill="#212121" x="29.7930147" y="48.4496945" width="10.0672794" height="3.28472505"></rect>
                                    <path d="M28.5665441,50.5539715 L40.3713235,50.1433809 C39.7069853,29.7678208 30.5595588,17.6553971 23.0474265,11.085947 C14.8198529,3.900611 4.29264706,0.513238289 3.98602941,0.410590631 L3.21948529,12.9336049 L4.75257353,7.23665988 L3.16838235,12.9336049 C4.13933824,13.190224 27.5444853,20.2729124 28.5665441,50.5539715 Z" id="Path" fill="#FF1A03"></path>
                                </g>
                                <g transform="translate(42.415441, 193.490835)">
                                    <rect id="Rectangle" fill="#FDDAC0" x="9.50514706" y="0.205295316" width="11.0382353" height="48.7576375"></rect>
                                    <path d="M14.9731618,41.4183299 C12.9801471,41.4183299 11.0893382,41.1617108 9.45404412,40.7511202 L9.45404412,48.9629328 L20.4922794,48.9629328 L20.4922794,40.7511202 C18.9080882,41.1617108 17.0172794,41.4183299 14.9731618,41.4183299 Z" id="Path" fill="#2BB34B"></path>
                                    <path d="M12.7757353,41.2643585 C11.6003676,41.1617108 10.4761029,40.9564155 9.45404412,40.6997963 L9.45404412,48.911609 L12.7757353,48.911609 L12.7757353,41.2643585 Z" id="Path" fill="#3A1C00"></path>
                                    <path d="M20.4411765,46.4480652 C19.0102941,47.0126273 17.1705882,47.3718941 15.1775735,47.3718941 C12.9801471,47.3718941 10.9871324,46.9613035 9.55625,46.2940937 C2.19742647,47.1152749 -0.766544118,54.4545825 0.715441176,56.0456212 C2.70845588,58.201222 10.2716912,58.9710794 15.6375,56.3535642 C17.6816176,55.3784114 21.3610294,56.1482688 21.3610294,54.0439919 L21.3610294,47.6798371 C21.3099265,47.1152749 20.9522059,46.6533605 20.4411765,46.4480652 Z" id="Path" fill="#2BB34B"></path>
                                    <path d="M4.03713235,48.5010183 C5.46801471,49.0655804 6.49007353,49.8867617 7.40992647,50.8619145 C7.92095588,50.4 8.43198529,49.9380855 8.99411765,49.4761711 C7.76764706,48.7576375 6.43897059,48.1417515 5.05919118,47.7824847 C4.70147059,47.98778 4.34375,48.2443992 4.03713235,48.5010183 Z" id="Path" fill="#442000"></path>
                                    <path d="M5.11029412,47.7824847 C6.43897059,48.1417515 7.76764706,48.7576375 9.04522059,49.4761711 C9.50514706,49.1169043 10.0161765,48.7576375 10.5272059,48.3983707 C9.50514706,47.6285132 8.38088235,47.0639511 7.15441176,46.807332 C6.38786765,47.0639511 5.72352941,47.4232179 5.11029412,47.7824847 Z" id="Path" fill="#603F1E"></path>
                                    <path d="M0.408823529,53.992668 C0.255514706,54.8651731 0.357720588,55.6350305 0.715441176,55.9942974 C2.70845588,58.1498982 10.2716912,58.9197556 15.6375,56.3022403 C17.6816176,55.3270876 21.3610294,56.096945 21.3610294,53.992668 L21.3610294,52.7095723 C19.6746324,52.8635438 16.8639706,53.3254582 13.4911765,54.8138493 C9.40294118,56.6615071 4.44595588,55.6863544 0.408823529,53.992668 Z" id="Path" fill="#4C2400"></path>
                                    <path d="M0.408823529,53.992668 C2.75955882,54.9678208 5.46801471,55.7376782 8.12536765,55.789002 C7.51213235,52.6582485 5.46801471,50.1947047 2.81066176,49.5788187 C1.43088235,51.0672098 0.664338235,52.7095723 0.408823529,53.992668 Z" id="Path" fill="#0E8727"></path>
                                    <path d="M6.33676471,51.9397149 C6.69448529,51.5804481 7.00110294,51.2211813 7.40992647,50.8619145 C6.43897059,49.8867617 5.46801471,49.0655804 4.03713235,48.5010183 C3.57720588,48.8602851 3.16838235,49.2195519 2.81066176,49.6301426 C4.19044118,49.9380855 5.41691176,50.7592668 6.33676471,51.9397149 Z" id="Path" fill="#603F1E"></path>
                                    <path d="M0.408823529,53.9413442 C0.408823529,53.8386965 0.459926471,53.7360489 0.511029412,53.5820774 C0.459926471,53.7360489 0.459926471,53.8386965 0.408823529,53.9413442 Z" id="Path" fill="#FFFFFF"></path>
                                    <path d="M9.55625,46.2940937 C8.6875,46.3967413 7.86985294,46.6020367 7.10330882,46.8586558 C8.32977941,47.1152749 9.45404412,47.6798371 10.4761029,48.4496945 C11.1404412,47.98778 11.8558824,47.5771894 12.6735294,47.1665988 C11.4981618,46.9613035 10.425,46.6533605 9.55625,46.2940937 Z" id="Path" fill="#442000"></path>
                                    <path d="M9.50514706,0.205295316 L9.50514706,27.9714868 L9.50514706,34.9515275 C11.0893382,35.3621181 12.9801471,35.6187373 15.0242647,35.6187373 C17.0683824,35.6187373 18.9591912,35.3621181 20.5433824,34.9515275 L20.5433824,27.9714868 L20.5433824,0.205295316 L9.50514706,0.205295316 Z" id="Path" fill="#0063BE"></path>
                                </g>
                                <g transform="translate(75.121324, 193.490835)">
                                    <rect id="Rectangle" fill="#FDDAC0" x="0.817647059" y="0.205295316" width="11.0382353" height="48.7576375"></rect>
                                    <path d="M6.33676471,41.4183299 C4.34375,41.4183299 2.45294118,41.1617108 0.817647059,40.7511202 L0.817647059,48.9629328 L11.8558824,48.9629328 L11.8558824,40.7511202 C10.2205882,41.1617108 8.32977941,41.4183299 6.33676471,41.4183299 Z" id="Path" fill="#2BB34B"></path>
                                    <path d="M8.53419118,48.911609 L11.8558824,48.911609 L11.8558824,40.6997963 C10.8338235,40.9564155 9.70955882,41.1617108 8.53419118,41.2643585 L8.53419118,48.911609 Z" id="Path" fill="#3A1C00"></path>
                                    <path d="M1.02205882,46.4480652 C2.45294118,47.0126273 4.29264706,47.3718941 6.28566176,47.3718941 C8.48308824,47.3718941 10.4761029,46.9613035 11.9069853,46.2940937 C19.2658088,47.1152749 22.2297794,54.4545825 20.7477941,56.0456212 C18.7547794,58.201222 11.1915441,58.9710794 5.82573529,56.3535642 C3.78161765,55.3784114 0.102205882,56.1482688 0.102205882,54.0439919 L0.102205882,47.6798371 C0.153308824,47.1152749 0.511029412,46.6533605 1.02205882,46.4480652 Z" id="Path" fill="#2BB34B"></path>
                                    <path d="M17.4261029,48.5010183 C15.9952206,49.0655804 14.9731618,49.8867617 14.0533088,50.8619145 C13.5422794,50.4 13.03125,49.9380855 12.4691176,49.4761711 C13.6955882,48.7576375 15.0242647,48.1417515 16.4040441,47.7824847 C16.7617647,47.98778 17.1194853,48.2443992 17.4261029,48.5010183 Z" id="Path" fill="#442000"></path>
                                    <path d="M16.4040441,47.7824847 C15.0753676,48.1417515 13.7466912,48.7576375 12.4691176,49.4761711 C12.0091912,49.1169043 11.4981618,48.7576375 10.9871324,48.3983707 C12.0091912,47.6285132 13.1334559,47.0639511 14.3599265,46.807332 C15.0753676,47.0639511 15.7908088,47.4232179 16.4040441,47.7824847 Z" id="Path" fill="#603F1E"></path>
                                    <path d="M21.0544118,53.992668 C21.2077206,54.8651731 21.1055147,55.6350305 20.7477941,55.9942974 C18.7547794,58.1498982 11.1915441,58.9197556 5.82573529,56.3022403 C3.78161765,55.3270876 0.102205882,56.096945 0.102205882,53.992668 L0.102205882,52.7095723 C1.78860294,52.8635438 4.59926471,53.3254582 7.97205882,54.8138493 C12.0602941,56.6615071 17.0172794,55.6863544 21.0544118,53.992668 Z" id="Path" fill="#4C2400"></path>
                                    <path d="M21.0544118,53.992668 C18.7036765,54.9678208 15.9952206,55.7376782 13.3378676,55.789002 C13.9511029,52.6582485 15.9952206,50.1947047 18.6525735,49.5788187 C20.0323529,51.0672098 20.85,52.7095723 21.0544118,53.992668 Z" id="Path" fill="#0E8727"></path>
                                    <path d="M15.1264706,51.9397149 C14.76875,51.5804481 14.4621324,51.2211813 14.0533088,50.8619145 C15.0242647,49.8867617 15.9952206,49.0655804 17.4261029,48.5010183 C17.8860294,48.8602851 18.2948529,49.2195519 18.6525735,49.6301426 C17.2727941,49.9380855 16.0463235,50.7592668 15.1264706,51.9397149 Z" id="Path" fill="#603F1E"></path>
                                    <path d="M21.0544118,53.9413442 C21.0544118,53.8386965 21.0033088,53.7360489 20.9522059,53.5820774 C21.0033088,53.7360489 21.0544118,53.8386965 21.0544118,53.9413442 Z" id="Path" fill="#FFFFFF"></path>
                                    <path d="M11.9580882,46.2940937 C12.8268382,46.3967413 13.6444853,46.6020367 14.4110294,46.8586558 C13.1845588,47.1152749 12.0602941,47.6798371 11.0382353,48.4496945 C10.3738971,47.98778 9.65845588,47.5771894 8.84080882,47.1665988 C9.96507353,46.9613035 11.0893382,46.6533605 11.9580882,46.2940937 Z" id="Path" fill="#442000"></path>
                                    <path d="M0.817647059,0.205295316 L0.817647059,27.9714868 L0.817647059,34.9515275 C2.40183824,35.3621181 4.29264706,35.6187373 6.33676471,35.6187373 C8.38088235,35.6187373 10.2716912,35.3621181 11.8558824,34.9515275 L11.8558824,27.9714868 L11.8558824,0.205295316 L0.817647059,0.205295316 Z" id="Path" fill="#0063BE"></path>
                                </g>
                                <g transform="translate(48.547794, 130.875764)">
                                    <ellipse id="Oval" fill="#212121" cx="20.9522059" cy="11.085947" rx="13.5422794" ry="3.38737271"></ellipse>
                                    <path d="M41.4955882,42.6501018 C40.9845588,34.8488798 39.7580882,23.1470468 37.9183824,18.4765784 C34.2389706,9.13564155 28.2088235,11.085947 20.9522059,11.085947 C13.6444853,11.085947 7.66544118,9.13564155 3.98602941,18.4765784 C2.14632353,23.1470468 0.919852941,34.8488798 0.408823529,42.6501018 C-1.37977941,69.7490835 6.69448529,68.0040733 20.9522059,68.0040733 C35.2610294,68.0040733 43.2841912,69.7490835 41.4955882,42.6501018 Z" id="Path" fill="#0091DE"></path>
                                    <ellipse id="Oval" fill="#232323" cx="20.85" cy="14.3193483" rx="8.99411765" ry="3.900611"></ellipse>
                                    <path d="M27.6977941,12.5743381 C27.6977941,15.2431772 24.6827206,17.398778 20.9522059,17.398778 L20.9522059,17.398778 C17.2216912,17.398778 14.2066176,15.2431772 14.2066176,12.5743381 L14.2066176,5.28635438 C14.2066176,2.61751527 17.2216912,0.46191446 20.9522059,0.46191446 L20.9522059,0.46191446 C24.6827206,0.46191446 27.6977941,2.61751527 27.6977941,5.28635438 L27.6977941,12.5743381 Z" id="Path" fill="#FDDAC0"></path>
                                    <path d="M27.6977941,5.33767821 C27.6977941,2.6688391 24.6827206,0.513238289 20.9522059,0.513238289 C17.2216912,0.513238289 14.2066176,2.6688391 14.2066176,5.33767821 L14.2066176,9.23828921 C18.7547794,9.18696538 23.2518382,9.13564155 27.6977941,9.03299389 L27.6977941,5.33767821 Z" id="Path" fill="#F8BBA6"></path>
                                    <path d="M14.2066176,9.18696538 L14.2066176,12.5743381 C14.2066176,15.2431772 17.2216912,17.398778 20.9522059,17.398778 C24.6827206,17.398778 27.6977941,15.2431772 27.6977941,12.5743381 L27.6977941,8.98167006 C23.2518382,9.08431772 18.7547794,9.13564155 14.2066176,9.18696538 Z" id="Path" fill="#FDDAC0"></path>
                                    <path d="M19.5213235,53.3254582 C12.5202206,53.3254582 5.92794118,52.4016293 0.153308824,50.707943 C0.511029412,69.3384929 8.27867647,67.9527495 20.9522059,67.9527495 C33.8301471,67.9527495 41.6488971,69.3898167 41.7511029,49.7841141 C35.3121324,52.0423625 27.6977941,53.3254582 19.5213235,53.3254582 Z" id="Path" fill="#0063BE"></path>
                                    <path d="M19.4702206,55.6350305 C27.5444853,55.6350305 35.1588235,54.5059063 41.7,52.504277 C41.7511029,51.6317719 41.7511029,50.7592668 41.7511029,49.8354379 C35.3121324,52.0423625 27.6977941,53.3254582 19.5213235,53.3254582 C12.5202206,53.3254582 5.92794118,52.4016293 0.153308824,50.707943 C0.153308824,51.6317719 0.204411765,52.504277 0.255514706,53.3254582 C6.08125,54.8138493 12.5713235,55.6350305 19.4702206,55.6350305 Z" id="Path" fill="#232323"></path>
                                    <path d="M10.7827206,49.4248473 C11.1404412,34.0790224 6.95,16.4749491 8.89191176,9.54623218 C6.89889706,10.6240326 5.2125,12.6256619 3.83272059,16.1670061 C1.89080882,21.0940937 0.306617647,33.3604888 0.0511029412,41.5723014 C0.0511029412,42.0342159 0.0511029412,49.9894094 0.0511029412,49.1169043 C3.475,50.6052953 5.82573529,51.6317719 10.7827206,49.4248473 Z" id="Path" fill="#FF1A03"></path>
                                    <path d="M8.89191176,9.54623218 C8.02316176,10.0081466 7.20551471,10.7266802 6.43897059,11.5991853 C7.40992647,18.7331976 9.91397059,37.3637475 9.65845588,49.8354379 C5.72352941,51.5804481 3.62830882,49.5788187 0.0511029412,48.3470468 C1.38777878e-17,48.5523422 0.0511029412,48.7576375 0.0511029412,49.0142566 C0.0511029412,49.2195519 0.0511029412,49.6301426 0.0511029412,49.8354379 C3.475,51.2725051 5.87683824,52.2476578 10.7827206,50.092057 C11.0893382,34.7462322 6.95,16.5262729 8.89191176,9.54623218 Z" id="Path" fill="#212121"></path>
                                    <path d="M31.1216912,49.4248473 C30.7639706,34.0790224 34.9544118,16.4749491 33.0125,9.54623218 C35.0055147,10.6240326 36.6919118,12.6256619 38.0716912,16.1670061 C40.0136029,21.0940937 41.5977941,33.3604888 41.8533088,41.5723014 C41.8533088,42.0342159 41.8533088,49.9894094 41.8533088,49.1169043 C38.4294118,50.6052953 36.0786765,51.6317719 31.1216912,49.4248473 Z" id="Path" fill="#FF1A03"></path>
                                    <path d="M33.0125,9.54623218 C33.88125,10.0081466 34.6988971,10.7266802 35.4654412,11.5991853 C34.4944853,18.7331976 31.9904412,37.3637475 32.2459559,49.8354379 C36.1808824,51.5804481 38.2761029,49.5788187 41.8533088,48.3470468 C41.9044118,48.5523422 41.8533088,48.7576375 41.8533088,49.0142566 C41.8533088,49.2195519 41.8533088,49.6301426 41.8533088,49.8354379 C38.4294118,51.2725051 36.0275735,52.2476578 31.1216912,50.092057 C30.8150735,34.7462322 34.9544118,16.5262729 33.0125,9.54623218 Z" id="Path" fill="#212121"></path>
                                </g>
                                <g>
                                    <ellipse id="Oval" fill="#723912" cx="69.5" cy="59.4329939" rx="65.8716912" ry="59.4329939"></ellipse>
                                    <path d="M16.2507353,92.6395112 C16.2507353,97.0533605 12.6735294,100.646029 8.27867647,100.646029 L8.27867647,100.646029 C3.88382353,100.646029 0.306617647,97.0533605 0.306617647,92.6395112 L0.306617647,82.9393075 C0.306617647,78.5254582 3.88382353,74.9327902 8.27867647,74.9327902 L8.27867647,74.9327902 C12.6735294,74.9327902 16.2507353,78.5254582 16.2507353,82.9393075 L16.2507353,92.6395112 Z" id="Path" fill="#FCD1B4"></path>
                                    <path d="M138.642279,92.6395112 C138.642279,97.0533605 135.065074,100.646029 130.670221,100.646029 L130.670221,100.646029 C126.275368,100.646029 122.698162,97.0533605 122.698162,92.6395112 L122.698162,82.9393075 C122.698162,78.5254582 126.275368,74.9327902 130.670221,74.9327902 L130.670221,74.9327902 C135.065074,74.9327902 138.642279,78.5254582 138.642279,82.9393075 L138.642279,92.6395112 Z" id="Path" fill="#FCD1B4"></path>
                                    <path d="M3.32169118,95.8729124 L3.32169118,86.1727088 C3.32169118,81.7588595 6.74558824,78.1661914 10.9360294,78.1661914 C12.7246324,78.1661914 14.3599265,78.8334012 15.6375,79.9112016 C14.4621324,76.9857434 11.6003676,74.9327902 8.27867647,74.9327902 C3.88382353,74.9327902 0.306617647,78.5254582 0.306617647,82.9393075 L0.306617647,92.6395112 C0.306617647,95.5136456 1.83970588,98.0285132 4.08823529,99.4142566 C3.62830882,98.38778 3.32169118,97.1560081 3.32169118,95.8729124 Z" id="Path" fill="#FDDAC0"></path>
                                    <path d="M130.721324,74.9327902 C127.399632,74.9327902 124.537868,76.9857434 123.3625,79.9112016 C124.640074,78.8334012 126.275368,78.1661914 128.063971,78.1661914 C132.254412,78.1661914 135.678309,81.7588595 135.678309,86.1727088 L135.678309,95.8729124 C135.678309,97.1560081 135.371691,98.3364562 134.860662,99.4142566 C137.109191,98.0285132 138.642279,95.5136456 138.642279,92.6395112 L138.642279,82.9393075 C138.642279,78.5254582 135.116176,74.9327902 130.721324,74.9327902 Z" id="Path" fill="#FDDAC0"></path>
                                    <path d="M125.202206,88.9441955 C125.202206,114.862729 104.301103,135.854175 78.4941176,135.854175 L60.5058824,135.854175 C34.6988971,135.854175 13.7977941,114.862729 13.7977941,88.9441955 L13.7977941,53.5307536 C13.7977941,27.61222 34.6988971,6.62077393 60.5058824,6.62077393 L78.4941176,6.62077393 C104.301103,6.62077393 125.202206,27.61222 125.202206,53.5307536 L125.202206,88.9441955 Z" id="Path" fill="#FDDAC0"></path>
                                    <path d="M77.2165441,111.064766 C77.2165441,115.324644 73.7415441,118.814664 69.5,118.814664 C65.2584559,118.814664 61.7834559,115.324644 61.7834559,111.064766 C61.7834559,106.804888 65.2584559,108.498574 69.5,108.498574 C73.7415441,108.498574 77.2165441,106.804888 77.2165441,111.064766 Z" id="Path" fill="#761027"></path>
                                    <path d="M77.1654412,110.089613 C76.6544118,107.061507 73.4349265,108.498574 69.5511029,108.498574 C65.6672794,108.498574 62.4477941,107.061507 61.9367647,110.089613 C64.1341912,110.551527 66.7404412,110.85947 69.5511029,110.85947 C72.3106618,110.85947 74.9680147,110.551527 77.1654412,110.089613 Z" id="Path" fill="#FFFFFF"></path>
                                    <path d="M69.5,118.814664 C72.7194853,118.814664 75.4790441,116.813035 76.6544118,113.990224 C74.5591912,113.579633 72.1573529,113.323014 69.5,113.323014 C66.89375,113.323014 64.4408088,113.579633 62.3455882,113.990224 C63.5209559,116.813035 66.2805147,118.814664 69.5,118.814664 Z" id="Path" fill="#F3889A"></path>
                                    <path d="M69.5,119.379226 C64.9518382,119.379226 61.2213235,115.632587 61.2213235,111.064766 C61.2213235,107.985336 63.0099265,107.574745 64.5430147,107.574745 C65.2073529,107.574745 65.9227941,107.626069 66.6382353,107.728717 C67.5580882,107.831365 68.4779412,107.934012 69.4488971,107.934012 C70.4198529,107.934012 71.3908088,107.831365 72.2595588,107.728717 C73.0261029,107.677393 73.7415441,107.574745 74.3547794,107.574745 C75.8878676,107.574745 77.6764706,107.985336 77.6764706,111.064766 C77.7786765,115.632587 74.0992647,119.379226 69.5,119.379226 Z M64.5430147,108.70387 C63.1121324,108.70387 62.3455882,109.063136 62.3455882,111.013442 C62.3455882,114.965377 65.5650735,118.198778 69.5,118.198778 C73.4349265,118.198778 76.6544118,114.965377 76.6544118,111.013442 C76.6544118,109.063136 75.9389706,108.70387 74.4569853,108.70387 C73.8948529,108.70387 73.1794118,108.755193 72.4639706,108.857841 C71.5952206,108.960489 70.5731618,109.063136 69.5,109.063136 C68.4268382,109.063136 67.4558824,108.960489 66.5360294,108.857841 C65.8205882,108.806517 65.15625,108.70387 64.5430147,108.70387 Z" id="Shape" fill="#F8BBA6"></path>
                                    <path d="M78.4941176,127.950305 L60.5058824,127.950305 C34.6988971,127.950305 13.7977941,106.958859 13.7977941,81.0403259 L13.7977941,88.8928717 C13.7977941,114.811405 34.6988971,135.802851 60.5058824,135.802851 L78.4941176,135.802851 C104.301103,135.802851 125.202206,114.811405 125.202206,88.8928717 L125.202206,81.0403259 C125.202206,106.958859 104.301103,127.950305 78.4941176,127.950305 Z" id="Path" fill="#FCD1B4"></path>
                                    <path d="M75.6323529,101.107943 C76.2966912,102.493686 75.5301471,103.87943 74.0481618,104.136049 L71.5952206,104.54664 C70.0621324,104.803259 68.9378676,103.725458 69.0400735,102.185743 L69.9088235,91.7670061 C70.0110294,90.2272912 70.6753676,90.1246436 71.2886029,91.510387 L75.6323529,101.107943 Z" id="Path" fill="#F8BBA6"></path>
                                    <path d="M4.90588235,70.6729124 C7.35882353,71.9046843 31.1216912,43.5739308 67.4047794,63.590224 C76.3477941,52.7095723 73.1794118,46.9613035 73.5882353,42.0855397 C78.0852941,52.7095723 74.8147059,64.1547862 72.3617647,65.386558 C83.6555147,72.0586558 120.398529,77.2423625 128.932721,65.7971487 C128.728309,6.67209776 91.1165441,5.28635438 65.5139706,5.28635438 C39.9113971,5.28635438 4.90588235,17.5527495 4.90588235,70.6729124 Z" id="Path" fill="#723912"></path>
                                    <polygon id="Path" fill="#723912" points="121.982721 117.223625 121.982721 55.5323829 132.509926 51.6830957"></polygon>
                                    <polygon id="Path" fill="#723912" points="17.0172794 117.223625 17.0172794 55.5323829 6.49007353 51.6830957"></polygon>
                                    <ellipse id="Oval" fill="#F49A98" cx="41.8533088" cy="108.395927" rx="5.62132353" ry="3.28472505"></ellipse>
                                    <ellipse id="Oval" fill="#F49A98" cx="97.1466912" cy="108.395927" rx="5.62132353" ry="3.28472505"></ellipse>
                                    <path d="M75.58125,12.9336049 C75.58125,12.9336049 76.2455882,13.3441955 77.31875,14.2680244 C77.8297794,14.7299389 78.4941176,15.294501 79.1584559,16.0130346 C79.8227941,16.7315682 80.5893382,17.5527495 81.3047794,18.5279022 C82.0713235,19.4517312 82.7867647,20.5808554 83.5533088,21.7099796 C83.9621324,22.2745418 84.26875,22.9417515 84.6264706,23.5576375 C84.9841912,24.1735234 85.3419118,24.8407332 85.6485294,25.5592668 C86.3128676,26.9450102 86.9772059,28.3820774 87.4371324,29.8704684 C87.6926471,30.6403259 87.9992647,31.3588595 88.2036765,32.1800407 C88.4080882,32.9498982 88.6125,33.7710794 88.8169118,34.5409369 C89.2257353,36.1319756 89.4301471,37.7230143 89.6345588,39.314053 C89.6856618,39.7246436 89.7878676,40.0839104 89.7878676,40.494501 C89.7878676,40.9050916 89.8389706,41.2643585 89.8389706,41.6749491 C89.8900735,42.4448065 89.8900735,43.214664 89.8900735,43.9845214 C89.9411765,44.7543788 89.8900735,45.4729124 89.7878676,46.2427699 C89.7367647,46.9613035 89.6856618,47.6798371 89.5834559,48.3983707 C89.48125,49.7841141 89.1746324,51.0672098 88.9191176,52.2476578 C88.7658088,52.81222 88.6636029,53.3767821 88.5102941,53.9413442 C88.4080882,54.4545825 88.2547794,54.9678208 88.0503676,55.4297352 C87.74375,56.3535642 87.3860294,57.1747454 87.1305147,57.7906314 C86.875,58.4578411 86.6705882,58.9197556 86.5172794,59.2790224 C86.3639706,59.6382892 86.2617647,59.7922607 86.2617647,59.7922607 C86.2617647,59.7922607 86.2617647,59.5869654 86.2106618,59.2276986 C86.2106618,58.8684318 86.1595588,58.3038697 86.1595588,57.585336 C86.1595588,56.9181263 86.1084559,56.0456212 86.1595588,55.1217923 C86.1595588,54.8651731 86.1595588,54.6598778 86.1595588,54.4032587 C86.1595588,54.1466395 86.1084559,53.8900204 86.1084559,53.6334012 C86.0573529,53.1201629 86.0573529,52.5556008 86.00625,51.9910387 C85.9551471,50.8619145 86.00625,49.6301426 85.8018382,48.295723 C85.7507353,47.6285132 85.6996324,46.9613035 85.6485294,46.2940937 C85.5974265,45.6268839 85.5974265,44.9083503 85.4441176,44.2411405 C85.1886029,42.8553971 85.1375,41.4183299 84.8308824,39.9812627 C84.6775735,39.2627291 84.5242647,38.5441955 84.4220588,37.8256619 C84.3709559,37.4663951 84.3198529,37.1071283 84.2176471,36.7478615 L83.9621324,35.6700611 C83.8088235,34.9515275 83.6044118,34.2329939 83.4511029,33.5144603 C83.2466912,32.7959267 83.0422794,32.0773931 82.8378676,31.4101833 C82.7356618,31.0509165 82.6334559,30.6916497 82.53125,30.3323829 C82.4290441,29.9731161 82.3268382,29.6138493 82.2246324,29.3059063 C81.9691176,28.6386965 81.7647059,27.9714868 81.5602941,27.2529532 C81.3558824,26.5857434 81.1003676,25.9698574 80.8448529,25.3026477 C80.5893382,24.6867617 80.3849265,24.0195519 80.1294118,23.4549898 C79.6183824,22.2745418 79.2095588,21.0940937 78.6985294,20.0676171 C78.2386029,18.9898167 77.7786765,18.0659878 77.4209559,17.1934827 C77.0121324,16.3209776 76.6544118,15.602444 76.3477941,14.986558 C76.0411765,14.3706721 75.7856618,13.9087576 75.6323529,13.5494908 C75.6834559,13.0875764 75.58125,12.9336049 75.58125,12.9336049 Z" id="Path" fill="#49250D"></path>
                                    <path d="M86.9772059,11.8558045 C86.9772059,11.8558045 87.8459559,12.1124236 89.2768382,12.7796334 C89.9411765,13.1389002 90.8610294,13.5494908 91.7808824,14.1653768 C92.2408088,14.4733198 92.7518382,14.7812627 93.2628676,15.1405295 C93.7738971,15.4997963 94.2849265,15.910387 94.7959559,16.3209776 C95.3580882,16.7315682 95.8691176,17.2448065 96.3801471,17.7580448 C96.8911765,18.2712831 97.5044118,18.7845214 98.0154412,19.3490835 C98.5264706,19.9136456 99.0886029,20.5295316 99.6507353,21.1454175 C100.212868,21.7613035 100.672794,22.4798371 101.183824,23.1470468 C102.256985,24.5327902 103.125735,26.0725051 103.994485,27.6635438 C104.25,28.0741344 104.454412,28.4334012 104.607721,28.8953157 L105.169853,30.1270876 C105.527574,30.9482688 105.936397,31.8207739 106.294118,32.6419552 C106.600735,33.5144603 106.85625,34.3869654 107.162868,35.2594705 L107.571691,36.59389 L107.776103,37.2610998 L107.929412,37.9283096 C108.133824,38.8008147 108.287132,39.6733198 108.440441,40.5458248 C108.59375,41.4183299 108.849265,42.2395112 108.849265,43.1120163 C109.002574,44.8057026 109.104779,46.4480652 109.206985,48.0391039 C109.206985,49.5788187 109.104779,51.0672098 109.053676,52.4529532 C109.002574,53.1201629 108.951471,53.7873727 108.900368,54.4032587 C108.849265,55.0191446 108.695956,55.5837067 108.644853,56.1482688 C108.440441,57.2260692 108.236029,58.1498982 108.082721,58.9197556 C107.929412,59.689613 107.776103,60.305499 107.673897,60.7160896 C107.571691,61.1266802 107.520588,61.3319756 107.520588,61.3319756 C107.520588,61.3319756 107.469485,61.1266802 107.418382,60.6647658 C107.367279,60.2541752 107.213971,59.6382892 107.111765,58.8684318 C107.009559,58.0985743 106.85625,57.1747454 106.754044,56.096945 C106.702941,55.5837067 106.651838,55.0191446 106.549632,54.4032587 C106.447426,53.8386965 106.345221,53.1714868 106.243015,52.5556008 C106.038603,51.2725051 105.834191,49.8867617 105.578676,48.3983707 C105.272059,46.9613035 104.914338,45.4215886 104.607721,43.8818737 C104.25,42.3421589 103.738971,40.7511202 103.330147,39.1600815 L103.176838,38.5441955 L102.972426,37.9796334 L102.563603,36.7991853 C102.308088,36.0293279 102.001471,35.2081466 101.745956,34.3869654 C101.439338,33.6171079 101.081618,32.8472505 100.775,32.0773931 C100.417279,31.3075356 100.212868,30.4863544 99.8040441,29.7678208 C99.4463235,29.0492872 99.0886029,28.2794297 98.7308824,27.5608961 C98.4242647,26.7910387 97.9643382,26.1751527 97.5555147,25.4566191 C97.1466912,24.7894094 96.7889706,24.0708758 96.3801471,23.4549898 C95.9713235,22.8391039 95.5625,22.2232179 95.1536765,21.5560081 C94.7959559,20.9401222 94.3360294,20.3755601 93.9272059,19.810998 C93.5183824,19.2464358 93.1606618,18.6818737 92.7518382,18.2199593 C92.3430147,17.706721 91.9852941,17.2448065 91.6275735,16.7828921 C91.2698529,16.3209776 90.8610294,15.910387 90.5544118,15.4997963 C90.1966912,15.0892057 89.8900735,14.7299389 89.5834559,14.3706721 C89.2768382,14.0114053 88.9702206,13.7034623 88.7147059,13.4468432 C88.1525735,12.9336049 87.74375,12.4716904 87.4371324,12.1637475 C87.1305147,12.009776 86.9772059,11.8558045 86.9772059,11.8558045 Z" id="Path" fill="#49250D"></path>
                                    <path d="M104.301103,21.6586558 C104.301103,21.6586558 105.067647,21.8126273 106.294118,22.3771894 C106.907353,22.6851324 107.673897,22.9930754 108.440441,23.5063136 C109.258088,23.9682281 110.075735,24.6354379 111.046691,25.3026477 C111.915441,26.0725051 112.886397,26.8423625 113.80625,27.8688391 C114.266176,28.3307536 114.726103,28.8439919 115.186029,29.408554 C115.645956,29.9731161 116.054779,30.5376782 116.514706,31.1022403 C116.974632,31.6668024 117.383456,32.2826884 117.741176,32.9498982 C118.15,33.5657841 118.558824,34.2329939 118.916544,34.9002037 C119.580882,36.285947 120.347426,37.6203666 120.909559,39.0574338 C121.165074,39.7759674 121.471691,40.494501 121.727206,41.2130346 C121.880515,41.5723014 121.982721,41.9315682 122.136029,42.290835 L122.442647,43.3686354 C122.647059,44.087169 122.851471,44.8057026 123.004779,45.5755601 C123.106985,45.9348269 123.158088,46.2940937 123.260294,46.6533605 C123.3625,47.0126273 123.3625,47.3718941 123.413603,47.7311609 C123.618015,49.1682281 123.822426,50.5539715 123.975735,51.8370672 C124.026838,53.1714868 124.077941,54.4032587 124.077941,55.5323829 C124.077941,56.096945 124.077941,56.6615071 124.077941,57.1747454 C124.026838,57.6879837 123.975735,58.201222 123.924632,58.6631365 C123.822426,59.5869654 123.720221,60.4081466 123.618015,61.0240326 C123.515809,61.6912424 123.413603,62.2044807 123.3625,62.5637475 C123.311397,62.9230143 123.260294,63.0769857 123.260294,63.0769857 C123.260294,63.0769857 123.209191,62.8716904 123.106985,62.5637475 C123.004779,62.2044807 122.851471,61.7425662 122.647059,61.0753564 C122.49375,60.4594705 122.238235,59.689613 122.033824,58.8171079 C121.931618,58.3551935 121.829412,57.893279 121.676103,57.4313646 C121.522794,56.9694501 121.369485,56.4562118 121.216176,55.8916497 C120.909559,54.8138493 120.602941,53.6847251 120.296324,52.504277 C119.938603,51.3238289 119.529779,50.092057 119.172059,48.7576375 C118.865441,47.4745418 118.252206,46.191446 117.894485,44.8570265 L117.587868,43.8818737 L117.179044,42.906721 C116.923529,42.2395112 116.668015,41.5723014 116.4125,40.9564155 C116.208088,40.2892057 115.850368,39.6733198 115.594853,39.00611 C115.288235,38.390224 115.032721,37.7230143 114.726103,37.1071283 C114.061765,35.8753564 113.499632,34.6435845 112.835294,33.5144603 C112.528676,32.9498982 112.170956,32.385336 111.864338,31.8207739 C111.557721,31.2562118 111.2,30.7429735 110.893382,30.2297352 C110.280147,29.1519348 109.564706,28.2794297 108.951471,27.3556008 C108.287132,26.5344196 107.725,25.6619145 107.162868,24.9947047 C106.600735,24.2761711 106.089706,23.711609 105.680882,23.1983707 C105.220956,22.7364562 104.914338,22.3258656 104.658824,22.1205703 C104.454412,21.7613035 104.301103,21.6586558 104.301103,21.6586558 Z" id="Path" fill="#49250D"></path>
                                    <ellipse id="Oval" fill="#FFFFFF" opacity="0.1" transform="translate(47.938473, 13.747221) rotate(-20.823608) translate(-47.938473, -13.747221) " cx="47.9384733" cy="13.747221" rx="16.8224274" ry="6.82255151"></ellipse>
                                </g>
                            </g>
                            <g transform="translate(31.683824, 74.932790)">
                                <g transform="translate(57.746324, 7.185336)" id="Oval">
                                    <ellipse fill="#FFFFFF" cx="8.94301471" cy="8.82769857" rx="8.89191176" ry="8.82769857"></ellipse>
                                    <ellipse fill="#BE3340" cx="7.40992647" cy="8.82769857" rx="7.35882353" ry="7.28798371"></ellipse>
                                    <ellipse fill="#231F20" cx="7.40992647" cy="8.82769857" rx="5.11029412" ry="5.08105906"></ellipse>
                                    <ellipse fill="#FFFFFF" cx="4.24154412" cy="6.05621181" rx="1.43088235" ry="1.43706721"></ellipse>
                                </g>
                                <g transform="translate(0.000000, 7.185336)" id="Oval">
                                    <ellipse fill="#FFFFFF" cx="8.89191176" cy="8.82769857" rx="8.89191176" ry="8.82769857"></ellipse>
                                    <ellipse fill="#BE3340" cx="10.4761029" cy="8.82769857" rx="7.35882353" ry="7.28798371"></ellipse>
                                    <ellipse fill="#231F20" cx="10.4761029" cy="8.82769857" rx="5.11029412" ry="5.08105906"></ellipse>
                                    <ellipse fill="#FFFFFF" cx="13.6444853" cy="6.05621181" rx="1.43088235" ry="1.43706721"></ellipse>
                                </g>
                                <path d="M3.11727941,3.79796334 C3.11727941,3.79796334 3.37279412,3.74663951 3.83272059,3.59266802 C4.03713235,3.5413442 4.29264706,3.43869654 4.54816176,3.33604888 C4.85477941,3.28472505 5.11029412,3.18207739 5.41691176,3.07942974 C5.72352941,2.97678208 6.03014706,2.87413442 6.38786765,2.82281059 C6.69448529,2.72016293 7.05220588,2.6688391 7.35882353,2.61751527 C7.71654412,2.56619145 8.02316176,2.51486762 8.32977941,2.51486762 C8.63639706,2.46354379 8.94301471,2.46354379 9.24963235,2.46354379 C8.89191176,2.46354379 9.14742647,2.46354379 9.09632353,2.46354379 L9.09632353,2.46354379 L9.09632353,2.46354379 L9.09632353,2.46354379 L9.14742647,2.46354379 L9.24963235,2.46354379 L9.45404412,2.46354379 L9.81176471,2.46354379 L9.96507353,2.46354379 C10.0161765,2.46354379 10.0161765,2.46354379 10.0672794,2.46354379 C10.1183824,2.46354379 10.1694853,2.46354379 10.2205882,2.46354379 C10.3227941,2.46354379 10.4761029,2.46354379 10.6294118,2.51486762 C10.7827206,2.56619145 10.9360294,2.56619145 11.1404412,2.56619145 C11.4470588,2.61751527 11.8047794,2.6688391 12.1113971,2.77148676 C12.4691176,2.82281059 12.7757353,2.92545825 13.0823529,3.02810591 C13.3889706,3.07942974 13.6955882,3.23340122 13.9511029,3.28472505 C14.2066176,3.38737271 14.4621324,3.43869654 14.6665441,3.49002037 C15.0753676,3.64399185 15.3819853,3.69531568 15.3819853,3.69531568 C15.3819853,3.69531568 15.3819853,3.5413442 15.3819853,3.23340122 C15.3819853,3.07942974 15.3308824,2.92545825 15.2286765,2.72016293 C15.1264706,2.51486762 15.0242647,2.3095723 14.8198529,2.10427699 C14.4621324,1.64236253 13.8488971,1.18044807 12.8779412,0.769857434 C12.6735294,0.667209776 12.3669118,0.564562118 12.1113971,0.513238289 L11.7025735,0.410590631 L11.1915441,0.307942974 L10.6294118,0.205295316 C10.425,0.153971487 10.2716912,0.153971487 10.1694853,0.153971487 L9.81176471,0.153971487 L9.60735294,0.153971487 L9.50514706,0.153971487 L9.45404412,0.153971487 L9.24963235,0.153971487 C8.58529412,0.205295316 7.92095588,0.205295316 7.30772059,0.359266802 C7.00110294,0.410590631 6.69448529,0.46191446 6.43897059,0.564562118 C6.18345588,0.667209776 5.87683824,0.718533605 5.67242647,0.821181263 C4.70147059,1.23177189 4.08823529,1.74501018 3.73051471,2.15560081 C3.52610294,2.36089613 3.42389706,2.61751527 3.32169118,2.82281059 C3.21948529,3.02810591 3.21948529,3.18207739 3.16838235,3.33604888 C3.06617647,3.64399185 3.11727941,3.79796334 3.11727941,3.79796334 Z" id="Path" fill="#755336"></path>
                                <path d="M70.9819853,3.79796334 C70.9819853,3.79796334 70.7264706,3.74663951 70.2665441,3.59266802 C70.0621324,3.5413442 69.8066176,3.43869654 69.5511029,3.33604888 C69.2444853,3.28472505 68.9889706,3.18207739 68.6823529,3.07942974 C68.3757353,2.97678208 68.0691176,2.87413442 67.7113971,2.82281059 C67.4047794,2.72016293 67.0470588,2.6688391 66.7404412,2.61751527 C66.3827206,2.56619145 66.0761029,2.51486762 65.7694853,2.51486762 C65.4628676,2.46354379 65.15625,2.46354379 64.8496324,2.46354379 C65.2073529,2.46354379 64.9518382,2.46354379 65.0029412,2.46354379 L65.0029412,2.46354379 L65.0029412,2.46354379 L65.0029412,2.46354379 L64.9518382,2.46354379 L64.8496324,2.46354379 L64.6452206,2.46354379 L64.2875,2.46354379 L64.1341912,2.46354379 C64.0830882,2.46354379 64.0830882,2.46354379 64.0319853,2.46354379 C63.9808824,2.46354379 63.9297794,2.46354379 63.8786765,2.46354379 C63.7764706,2.46354379 63.6231618,2.46354379 63.4698529,2.51486762 C63.3165441,2.56619145 63.1632353,2.56619145 62.9588235,2.56619145 C62.6522059,2.61751527 62.2944853,2.6688391 61.9878676,2.77148676 C61.6301471,2.82281059 61.3235294,2.92545825 61.0169118,3.02810591 C60.7102941,3.07942974 60.4036765,3.23340122 60.1481618,3.28472505 C59.8926471,3.38737271 59.6371324,3.43869654 59.4327206,3.49002037 C59.0238971,3.64399185 58.7172794,3.69531568 58.7172794,3.69531568 C58.7172794,3.69531568 58.7172794,3.5413442 58.7172794,3.23340122 C58.7172794,3.07942974 58.7683824,2.92545825 58.8705882,2.72016293 C58.9727941,2.51486762 59.075,2.3095723 59.2794118,2.10427699 C59.6371324,1.64236253 60.2503676,1.18044807 61.2213235,0.769857434 C61.4257353,0.667209776 61.7323529,0.564562118 61.9878676,0.513238289 L62.3966912,0.410590631 L62.9077206,0.307942974 L63.4698529,0.205295316 C63.6742647,0.153971487 63.8275735,0.153971487 63.9297794,0.153971487 L64.2875,0.153971487 L64.4919118,0.153971487 L64.5941176,0.153971487 L64.6452206,0.153971487 L64.8496324,0.153971487 C65.5139706,0.205295316 66.1783088,0.205295316 66.7915441,0.359266802 C67.0981618,0.410590631 67.4047794,0.46191446 67.6602941,0.564562118 C67.9158088,0.667209776 68.2224265,0.718533605 68.4268382,0.821181263 C69.3977941,1.23177189 70.0110294,1.74501018 70.36875,2.15560081 C70.5731618,2.36089613 70.6753676,2.61751527 70.7775735,2.82281059 C70.8797794,3.02810591 70.8797794,3.18207739 70.9308824,3.33604888 C71.0330882,3.64399185 70.9819853,3.79796334 70.9819853,3.79796334 Z" id="Path" fill="#755336"></path>
                            </g>
                        </g>
                        <path d="M78.0341912,164.133605 L78.0341912,162.131976 L75.8878676,161.413442 C75.7345588,160.84888 75.5301471,160.284318 75.2235294,159.771079 L76.2455882,157.718126 L74.8147059,156.281059 L72.7705882,157.307536 C72.2595588,156.999593 71.7485294,156.794297 71.1352941,156.640326 L70.4198529,154.484725 L68.4268382,154.484725 L67.7113971,156.640326 C67.1492647,156.794297 66.5871324,156.999593 66.0761029,157.307536 L64.0319853,156.281059 L62.6011029,157.718126 L63.6231618,159.771079 C63.3165441,160.284318 63.1121324,160.797556 62.9588235,161.413442 L60.8125,162.131976 L60.8125,164.133605 L62.9588235,164.852138 C63.1121324,165.416701 63.3165441,165.981263 63.6231618,166.494501 L62.6011029,168.547454 L64.0319853,169.984521 L66.0761029,168.958045 C66.5871324,169.265988 67.0981618,169.471283 67.7113971,169.625255 L68.4268382,171.780855 L70.4198529,171.780855 L71.1352941,169.625255 C71.6974265,169.471283 72.2595588,169.265988 72.7705882,168.958045 L74.8147059,169.984521 L76.2455882,168.547454 L75.2235294,166.494501 C75.5301471,165.981263 75.7345588,165.468024 75.8878676,164.852138 L78.0341912,164.133605 Z M69.5,167.828921 C66.89375,167.828921 64.7985294,165.724644 64.7985294,163.107128 C64.7985294,160.489613 66.89375,158.385336 69.5,158.385336 C72.10625,158.385336 74.2014706,160.489613 74.2014706,163.107128 C74.2014706,165.724644 72.10625,167.828921 69.5,167.828921 Z" id="Shape" fill="#232323"></path>
                        <path d="M122.851471,94.0252546 L122.851471,88.0203666 L116.361397,85.9160896 C115.901471,84.1710794 115.237132,82.5287169 114.317279,81.0403259 L117.434559,74.9327902 L113.193015,70.6729124 L107.111765,73.803666 C105.578676,72.9311609 103.943382,72.2126273 102.256985,71.7507128 L100.161765,65.2325866 L94.1827206,65.2325866 L92.0875,71.7507128 C90.35,72.2126273 88.7147059,72.8798371 87.2327206,73.803666 L81.1514706,70.6729124 L76.9099265,74.9327902 L80.0272059,81.0403259 C79.1584559,82.5800407 78.4430147,84.2224033 77.9830882,85.9160896 L71.4930147,88.0203666 L71.4930147,94.0252546 L77.9830882,96.1295316 C78.4430147,97.8745418 79.1073529,99.5169043 80.0272059,101.005295 L76.9099265,107.112831 L81.1514706,111.372709 L87.2327206,108.241955 C88.7658088,109.11446 90.4011029,109.832994 92.0875,110.294908 L94.1827206,116.813035 L100.161765,116.813035 L102.256985,110.294908 C103.994485,109.832994 105.629779,109.165784 107.111765,108.241955 L113.193015,111.372709 L117.434559,107.112831 L114.317279,101.005295 C115.186029,99.4655804 115.901471,97.8232179 116.361397,96.1295316 L122.851471,94.0252546 Z M97.1466912,105.162525 C89.3790441,105.162525 83.0933824,98.8496945 83.0933824,91.0484725 C83.0933824,83.2472505 89.3790441,76.9344196 97.1466912,76.9344196 C104.914338,76.9344196 111.2,83.2472505 111.2,91.0484725 C111.2,98.8496945 104.914338,105.162525 97.1466912,105.162525 Z" id="Shape" fill="#1C1C1C"></path>
                        <path d="M23.1496324,96.1295316 C23.6095588,97.8745418 24.2738971,99.5169043 25.19375,101.005295 L22.0764706,107.112831 L26.3180147,111.372709 L32.3992647,108.241955 C33.9323529,109.11446 35.5676471,109.832994 37.2540441,110.294908 L39.3492647,116.813035 L45.3283088,116.813035 L47.4235294,110.294908 C49.1610294,109.832994 50.7963235,109.165784 52.2783088,108.241955 L58.3595588,111.372709 L62.6011029,107.112831 L59.4838235,101.005295 C60.3525735,99.4655804 61.0680147,97.8232179 61.5279412,96.1295316 L68.0180147,94.0252546 L68.0180147,88.0203666 L61.5279412,85.9160896 C61.0680147,84.1710794 60.4036765,82.5287169 59.4838235,81.0403259 L62.6011029,74.9327902 L58.3595588,70.6729124 L52.2783088,73.803666 C50.7452206,72.9311609 49.1099265,72.2126273 47.4235294,71.7507128 L45.3283088,65.2325866 L39.3492647,65.2325866 L37.2540441,71.7507128 C35.5165441,72.2126273 33.88125,72.8798371 32.3992647,73.803666 L26.3180147,70.6729124 L22.0764706,74.9327902 L25.19375,81.0403259 C24.325,82.5800407 23.6095588,84.2224033 23.1496324,85.9160896 L16.6595588,88.0203666 L16.6595588,94.0252546 L23.1496324,96.1295316 Z M28.2599265,90.9971487 C28.2599265,83.1959267 34.5455882,76.8830957 42.3132353,76.8830957 C50.0808824,76.8830957 56.3665441,83.1959267 56.3665441,90.9971487 C56.3665441,98.7983707 50.0808824,105.111202 42.3132353,105.111202 C34.5455882,105.111202 28.2599265,98.7983707 28.2599265,90.9971487 Z" id="Shape" fill="#1C1C1C"></path>
                        <g transform="translate(58.768382, 85.710794)">
                            <path d="M20.9522059,9.34093686 C14.5132353,7.49327902 7.66544118,7.49327902 1.27757353,9.34093686 C1.27757353,6.51812627 1.27757353,5.13238289 1.27757353,2.3095723 C7.71654412,0.46191446 14.5643382,0.46191446 20.9522059,2.3095723 C20.9522059,5.13238289 20.9522059,6.51812627 20.9522059,9.34093686 Z" id="Path" fill="#161616"></path>
                            <path d="M21.6676471,10.3160896 L20.6966912,10.0594705 C14.4621324,8.26313646 7.66544118,8.26313646 1.43088235,10.0594705 L0.459926471,10.3160896 L0.459926471,1.69368635 L1.02205882,1.53971487 C7.56323529,-0.307942974 14.6154412,-0.307942974 21.1055147,1.53971487 L21.6676471,1.69368635 L21.6676471,10.3160896 L21.6676471,10.3160896 Z M11.0893382,7.23665988 C14.1555147,7.23665988 17.2216912,7.59592668 20.1856618,8.36578411 L20.1856618,2.87413442 C14.2577206,1.28309572 7.92095588,1.28309572 1.99301471,2.87413442 L1.99301471,8.36578411 C4.95698529,7.59592668 8.02316176,7.23665988 11.0893382,7.23665988 Z" id="Shape" fill="#000000"></path>
                        </g>
                        <g transform="translate(21.463235, 70.313646)">
                            <ellipse id="Oval" fill="#086DFF" opacity="0.7" cx="20.6966912" cy="20.6321792" rx="17.1705882" ry="17.2448065"></ellipse>
                            <g id="Shape">
                                <path d="M20.6966912,2.05295316 C10.4761029,2.05295316 2.19742647,10.3674134 2.19742647,20.6321792 C2.19742647,30.896945 10.4761029,39.2114053 20.6966912,39.2114053 C30.9172794,39.2114053 39.1959559,30.896945 39.1959559,20.6321792 C39.1959559,10.3674134 30.8661765,2.05295316 20.6966912,2.05295316 Z M20.6966912,35.4647658 C12.5202206,35.4647658 5.92794118,28.792668 5.92794118,20.6321792 C5.92794118,12.4203666 12.5713235,5.79959267 20.6966912,5.79959267 C28.8220588,5.79959267 35.4654412,12.4716904 35.4654412,20.6321792 C35.4654412,28.792668 28.8220588,35.4647658 20.6966912,35.4647658 Z" fill="#FFFFFF"></path>
                                <path d="M20.6966912,2.05295316 C30.9172794,2.05295316 39.1959559,10.3674134 39.1959559,20.6321792 C39.1959559,30.896945 30.9172794,39.2114053 20.6966912,39.2114053 C10.4761029,39.2114053 2.19742647,30.896945 2.19742647,20.6321792 C2.19742647,10.3674134 10.4761029,2.05295316 20.6966912,2.05295316 L20.6966912,2.05295316 Z M20.6966912,35.4647658 C28.8731618,35.4647658 35.4654412,28.792668 35.4654412,20.6321792 C35.4654412,12.4203666 28.8220588,5.79959267 20.6966912,5.79959267 C12.5713235,5.79959267 5.92764831,12.4716904 5.92764831,20.6321792 C5.87683824,28.792668 12.5202206,35.4647658 20.6966912,35.4647658 L20.6966912,35.4647658 Z M20.6966912,0.0513238289 C9.40294118,0.0513238289 0.204411765,9.28961303 0.204411765,20.6321792 C0.204411765,31.9747454 9.40294118,41.2130346 20.6966912,41.2130346 C31.9904412,41.2130346 41.1889706,31.9747454 41.1889706,20.6321792 C41.1889706,9.23828921 31.9904412,0.0513238289 20.6966912,0.0513238289 L20.6966912,0.0513238289 Z M20.6966912,33.4631365 C13.6444853,33.4631365 7.92095588,27.7148676 7.92095588,20.6321792 C7.92095588,13.5494908 13.6444853,7.801222 20.6966912,7.801222 C27.7488971,7.801222 33.4724265,13.5494908 33.4724265,20.6321792 C33.4724265,27.7148676 27.7488971,33.4631365 20.6966912,33.4631365 L20.6966912,33.4631365 Z" fill="#000000"></path>
                            </g>
                        </g>
                        <g transform="translate(77.165441, 71.853360)">
                            <ellipse id="Oval" fill="#086DFF" opacity="0.7" cx="19.6746324" cy="19.0924644" rx="17.1705882" ry="17.2448065"></ellipse>
                            <g id="Shape">
                                <path d="M19.6746324,0.513238289 C9.45404412,0.513238289 1.17536765,8.82769857 1.17536765,19.0924644 C1.17536765,29.3572301 9.45404412,37.6716904 19.6746324,37.6716904 C29.8952206,37.6716904 38.1738971,29.3572301 38.1738971,19.0924644 C38.1738971,8.82769857 29.8952206,0.513238289 19.6746324,0.513238289 Z M19.6746324,33.9250509 C11.4981618,33.9250509 4.90588235,27.2529532 4.90588235,19.0924644 C4.90588235,10.8806517 11.5492647,4.2598778 19.6746324,4.2598778 C27.8511029,4.2598778 34.4433824,10.9319756 34.4433824,19.0924644 C34.4433824,27.2529532 27.8511029,33.9250509 19.6746324,33.9250509 Z" fill="#FFFFFF"></path>
                                <g fill="#000000">
                                    <path d="M19.6746324,0.615885947 C19.6746324,0.615885947 19.2147059,0.615885947 18.3970588,0.667209776 C18.1926471,0.667209776 17.9371324,0.667209776 17.6816176,0.718533605 C17.4261029,0.769857434 17.1705882,0.821181263 16.8639706,0.872505092 C16.5573529,0.923828921 16.2507353,0.975152749 15.8930147,1.07780041 C15.5352941,1.18044807 15.1775735,1.28309572 14.8198529,1.38574338 C13.3378676,1.84765784 11.5492647,2.61751527 9.81176471,3.95193483 C8.07426471,5.23503055 6.38786765,7.03136456 5.00808824,9.23828921 C3.67941176,11.4965377 2.60625,14.1653768 2.24852941,17.090835 C2.19742647,17.4501018 2.19742647,17.8606925 2.14632353,18.2199593 L2.09522059,18.7845214 L2.09522059,19.0924644 C2.09522059,19.1437882 2.09522059,19.0411405 2.09522059,19.0924644 L2.09522059,19.1437882 L2.09522059,19.195112 L2.09522059,19.3490835 C2.14632353,20.1702648 2.09522059,20.991446 2.19742647,21.7099796 C2.29963235,23.2496945 2.75955882,24.8407332 3.32169118,26.3804481 C3.475,26.7397149 3.62830882,27.1503055 3.83272059,27.5095723 C3.98602941,27.8688391 4.24154412,28.2281059 4.44595588,28.6386965 L4.75257353,29.2032587 C4.85477941,29.3572301 5.00808824,29.5625255 5.11029412,29.7164969 C5.36580882,30.0757637 5.57022059,30.4350305 5.87683824,30.7429735 C6.18345588,31.0509165 6.43897059,31.4101833 6.74558824,31.7181263 C7.00110294,32.0773931 7.35882353,32.3340122 7.66544118,32.6419552 L8.12536765,33.1038697 C8.27867647,33.2578411 8.48308824,33.3604888 8.63639706,33.5144603 C8.99411765,33.7710794 9.35183824,34.0790224 9.70955882,34.2843177 C11.1915441,35.2594705 12.8268382,35.9780041 14.5132353,36.4912424 C16.1996324,36.9531568 18.0393382,37.1071283 19.7257353,37.1071283 C20.5944853,37.0044807 21.5654412,37.0044807 22.3830882,36.7991853 L22.9963235,36.6965377 L23.3029412,36.6452138 L23.6095588,36.5425662 L24.8360294,36.1832994 C25.2448529,36.0293279 25.6536765,35.8753564 26.0625,35.7213849 C26.2669118,35.6187373 26.4713235,35.5674134 26.6757353,35.4647658 L27.2378676,35.1568228 C27.5955882,34.9515275 28.0044118,34.797556 28.3621324,34.5409369 L29.4352941,33.8737271 C30.8150735,32.8985743 32.0926471,31.7181263 33.1147059,30.4350305 C33.3702206,30.1270876 33.6257353,29.7678208 33.8301471,29.4598778 L34.1878676,28.9466395 L34.4944853,28.4334012 C34.6988971,28.0741344 34.9033088,27.7148676 35.1077206,27.3556008 C35.2610294,26.996334 35.4654412,26.6370672 35.61875,26.2778004 C36.2319853,24.7894094 36.6919118,23.2496945 36.8963235,21.7099796 C37.0496324,20.9401222 37.0496324,20.1702648 37.1007353,19.4004073 L37.1007353,19.2464358 L37.1007353,19.195112 L37.1007353,19.1437882 C37.1007353,19.1437882 37.1007353,19.2464358 37.1007353,19.1437882 L37.1007353,18.8358452 L37.1007353,18.2199593 C37.1007353,17.8093686 37.1007353,17.398778 37.0496324,17.0395112 C36.9985294,16.6802444 36.9474265,16.3209776 36.8963235,15.9617108 C36.8452206,15.8077393 36.8452206,15.602444 36.7941176,15.4484725 L36.6408088,14.9352342 C36.5386029,14.5759674 36.4875,14.2167006 36.3852941,13.9087576 C36.2830882,13.5494908 36.1808824,13.2415479 36.0275735,12.9336049 C35.61875,11.5991853 34.9544118,10.4187373 34.3411765,9.28961303 C33.0125,7.03136456 31.275,5.28635438 29.5375,4.00325866 C27.8,2.6688391 26.0113971,1.89898167 24.5294118,1.43706721 C24.1716912,1.33441955 23.8139706,1.23177189 23.45625,1.12912424 C23.0985294,1.02647658 22.7919118,0.975152749 22.4852941,0.923828921 C22.1786765,0.872505092 21.9231618,0.821181263 21.6676471,0.769857434 C21.4121324,0.718533605 21.1566176,0.718533605 20.9522059,0.718533605 C20.1345588,0.615885947 19.6746324,0.615885947 19.6746324,0.615885947 L19.6746324,0.615885947 Z M19.6746324,0.410590631 C19.6746324,0.410590631 20.1345588,0.410590631 21.0033088,0.46191446 C21.2077206,0.46191446 21.4632353,0.46191446 21.71875,0.513238289 C21.9742647,0.564562118 22.2808824,0.615885947 22.5875,0.615885947 C22.8941176,0.667209776 23.2518382,0.667209776 23.5584559,0.769857434 C23.9161765,0.872505092 24.2738971,0.923828921 24.6827206,1.02647658 C24.8871324,1.07780041 25.0915441,1.12912424 25.2959559,1.18044807 C25.5003676,1.23177189 25.7047794,1.33441955 25.9091912,1.38574338 C26.3180147,1.53971487 26.7779412,1.64236253 27.2378676,1.84765784 C27.6977941,2.05295316 28.1577206,2.25824847 28.6176471,2.46354379 C29.0775735,2.72016293 29.5886029,2.97678208 30.0485294,3.23340122 C31.9904412,4.36252546 34.0856618,6.05621181 35.7720588,8.36578411 C35.9764706,8.67372709 36.1808824,8.98167006 36.3852941,9.28961303 C36.5897059,9.59755601 36.7941176,9.90549898 36.9474265,10.213442 C37.3051471,10.8806517 37.6628676,11.5478615 37.9183824,12.2663951 C38.0716912,12.6256619 38.225,12.9849287 38.3272059,13.3441955 C38.4294118,13.7034623 38.5316176,14.114053 38.6338235,14.4733198 L38.7871324,15.0378819 C38.8382353,15.2431772 38.8382353,15.4484725 38.8893382,15.6537678 C38.9404412,16.0643585 39.0426471,16.4749491 39.09375,16.8855397 C39.1448529,17.2961303 39.1448529,17.6553971 39.1959559,18.0659878 L39.2470588,18.6818737 L39.2470588,18.9898167 L39.2470588,19.0924644 L39.2470588,19.1437882 L39.2470588,19.2464358 L39.2470588,19.4004073 C39.1959559,20.2729124 39.1959559,21.0940937 39.0426471,21.9665988 C38.8382353,23.711609 38.2761029,25.4052953 37.5606618,27.0476578 C37.35625,27.4582485 37.1518382,27.8688391 36.9474265,28.2794297 C36.7430147,28.6900204 36.4875,29.0492872 36.2319853,29.4598778 L35.8742647,30.0244399 L35.4654412,30.589002 C35.1588235,30.9482688 34.9033088,31.3075356 34.5966912,31.6668024 C33.3702206,33.0525458 31.9904412,34.2843177 30.40625,35.3107943 C28.8220588,36.3372709 27.0845588,37.0558045 25.2959559,37.5690428 L23.9161765,37.8769857 L23.5584559,37.9283096 L23.2007353,37.9796334 L22.4852941,38.0822811 C21.5143382,38.2362525 20.6455882,38.1849287 19.7257353,38.1849287 L18.2948529,38.0822811 C17.8349265,38.0822811 17.375,37.9796334 16.9150735,37.8769857 L16.2507353,37.7743381 L15.8930147,37.7230143 L15.5352941,37.6203666 L14.2066176,37.209776 C13.7466912,37.0558045 13.3378676,36.901833 12.9290441,36.7478615 C12.7246324,36.6452138 12.5202206,36.59389 12.3158088,36.4912424 L11.7025735,36.1832994 C11.29375,35.9780041 10.8849265,35.8240326 10.4761029,35.5674134 L9.30073529,34.8488798 C7.81875,33.8224033 6.43897059,32.6419552 5.26360294,31.2562118 C4.13933824,29.8704684 3.06617647,28.4334012 2.29963235,26.8423625 C1.53308824,25.2513238 0.919852941,23.6089613 0.664338235,21.9152749 C0.459926471,21.0427699 0.459926471,20.2729124 0.357720588,19.4517312 L0.357720588,19.2977597 L0.357720588,19.2464358 L0.357720588,19.195112 L0.357720588,19.0924644 L0.357720588,18.7845214 L0.357720588,18.1686354 C0.357720588,17.7580448 0.357720588,17.3474542 0.408823529,16.9368635 C0.766544118,13.6521385 1.94191176,10.6753564 3.62830882,8.36578411 C5.26360294,6.05621181 7.35882353,4.36252546 9.30073529,3.23340122 C9.81176471,2.97678208 10.2716912,2.72016293 10.7316176,2.46354379 C11.1915441,2.25824847 11.7025735,2.05295316 12.1113971,1.84765784 C12.5713235,1.64236253 13.03125,1.53971487 13.4400735,1.38574338 C13.6444853,1.33441955 13.8488971,1.23177189 14.0533088,1.18044807 C14.2577206,1.12912424 14.4621324,1.07780041 14.6665441,1.02647658 C15.0753676,0.923828921 15.4330882,0.872505092 15.7908088,0.769857434 C16.1485294,0.718533605 16.4551471,0.667209776 16.7617647,0.615885947 C17.0683824,0.564562118 17.375,0.513238289 17.6305147,0.513238289 C17.8860294,0.46191446 18.1415441,0.46191446 18.3459559,0.46191446 C19.2147059,0.410590631 19.6746324,0.410590631 19.6746324,0.410590631 L19.6746324,0.410590631 Z"></path>
                                    <path d="M19.6746324,34.0276986 C19.6746324,34.0276986 19.3169118,34.0276986 18.6525735,33.9763747 C18.4992647,33.9763747 18.2948529,33.9763747 18.0904412,33.9250509 C17.8860294,33.8737271 17.6305147,33.8737271 17.4261029,33.8224033 C17.1705882,33.7710794 16.9150735,33.7710794 16.6084559,33.7197556 C16.3529412,33.6684318 16.0463235,33.6171079 15.7397059,33.5144603 C15.5863971,33.4631365 15.4330882,33.4631365 15.2797794,33.4118126 C15.1264706,33.3604888 14.9731618,33.309165 14.76875,33.2578411 C14.4110294,33.1551935 14.0533088,33.0525458 13.6955882,32.8985743 C13.3378676,32.7446029 12.9801471,32.5906314 12.5713235,32.4366599 C12.2136029,32.2313646 11.8047794,32.0260692 11.3959559,31.8207739 C9.81176471,30.896945 8.12536765,29.6138493 6.79669118,27.7148676 C5.41691176,25.8672098 4.44595588,23.4549898 4.19044118,20.7861507 C4.13933824,20.4782077 4.13933824,20.1189409 4.13933824,19.810998 L4.13933824,19.2977597 L4.13933824,19.0411405 L4.13933824,18.9898167 L4.13933824,18.9384929 L4.13933824,18.887169 L4.13933824,18.7845214 C4.19044118,18.1173116 4.24154412,17.5014257 4.39485294,16.7828921 C4.65036765,15.3971487 5.11029412,14.0627291 5.77463235,12.7796334 C6.38786765,11.4965377 7.25661765,10.3674134 8.17647059,9.23828921 C9.14742647,8.1604888 10.2205882,7.18533605 11.4470588,6.36415479 L12.3669118,5.79959267 C12.6735294,5.59429735 13.03125,5.44032587 13.3378676,5.28635438 L13.8488971,5.02973523 C14.0022059,4.92708758 14.2066176,4.87576375 14.3599265,4.82443992 C14.7176471,4.67046843 15.0242647,4.56782077 15.3819853,4.41384929 C16.0974265,4.20855397 16.8128676,3.95193483 17.5283088,3.84928717 C17.8860294,3.79796334 18.24375,3.69531568 18.6525735,3.69531568 L19.8279412,3.59266802 C20.5433824,3.59266802 21.2588235,3.5413442 22.0253676,3.69531568 C22.7919118,3.74663951 23.5584559,3.900611 24.2738971,4.10590631 C25.7558824,4.51649695 27.1356618,5.13238289 28.4132353,5.90224033 C29.6908088,6.72342159 30.8150735,7.74989817 31.8371324,8.8790224 C32.8080882,10.0081466 33.6257353,11.2399185 34.2389706,12.6256619 C34.8522059,13.9600815 35.2610294,15.3458248 35.4654412,16.7315682 C35.61875,17.4501018 35.61875,18.1173116 35.61875,18.8358452 L35.61875,18.9898167 L35.61875,19.0411405 L35.61875,19.0924644 L35.61875,19.195112 L35.61875,19.4517312 L35.5676471,19.9136456 C35.5165441,20.2215886 35.5676471,20.5295316 35.4654412,20.8887984 C35.3632353,21.5560081 35.2610294,22.2745418 35.1077206,22.8904277 C35.0055147,23.1983707 34.9544118,23.5063136 34.8522059,23.8142566 C34.75,24.1221996 34.5966912,24.4301426 34.4944853,24.6867617 C34.2900735,25.3026477 33.9834559,25.8158859 33.6768382,26.3804481 C33.5746324,26.6370672 33.3702206,26.8936864 33.2169118,27.1503055 C33.0636029,27.4069246 32.9102941,27.61222 32.7058824,27.8688391 C31.3261029,29.7164969 29.6397059,31.0509165 28.0555147,31.9234216 C27.6466912,32.1287169 27.2378676,32.3340122 26.8801471,32.5393075 C26.4713235,32.693279 26.1136029,32.8472505 25.7558824,33.001222 C25.3981618,33.1551935 25.0404412,33.2578411 24.6827206,33.3604888 C24.5294118,33.4118126 24.325,33.4631365 24.1716912,33.5144603 C24.0183824,33.5657841 23.8650735,33.5657841 23.7117647,33.6171079 C23.4051471,33.6684318 23.0985294,33.7710794 22.8430147,33.8224033 C22.5363971,33.8737271 22.2808824,33.8737271 22.0253676,33.9250509 C21.7698529,33.9763747 21.5654412,33.9763747 21.3610294,34.0276986 C21.1566176,34.0790224 20.9522059,34.0276986 20.7988971,34.0790224 C20.0323529,34.0276986 19.6746324,34.0276986 19.6746324,34.0276986 L19.6746324,34.0276986 Z M19.6746324,33.8224033 C19.6746324,33.8224033 20.0323529,33.8224033 20.6966912,33.7710794 C20.85,33.7710794 21.0544118,33.7710794 21.2588235,33.7197556 C21.4632353,33.6684318 21.6676471,33.6684318 21.9231618,33.6171079 C22.1786765,33.5657841 22.4341912,33.5144603 22.6897059,33.4631365 C22.9452206,33.3604888 23.2518382,33.309165 23.5584559,33.2065173 C24.7338235,32.8472505 26.1647059,32.1800407 27.5444853,31.1535642 C28.9242647,30.1270876 30.2529412,28.6900204 31.275,26.8936864 C31.7860294,25.9698574 32.2459559,25.0460285 32.6036765,23.9682281 C32.7058824,23.711609 32.7569853,23.4549898 32.8591912,23.1983707 C32.9102941,22.9417515 33.0125,22.6338086 33.0636029,22.3771894 C33.2169118,21.8126273 33.2680147,21.299389 33.3191176,20.7348269 C33.3702206,20.4782077 33.3702206,20.1189409 33.3702206,19.810998 L33.3702206,19.3490835 L33.3702206,19.0924644 C33.3702206,19.0411405 33.3702206,19.1437882 33.3702206,19.0924644 L33.3702206,19.0411405 L33.3702206,18.9898167 L33.3702206,18.887169 C33.3191176,18.2712831 33.3191176,17.706721 33.2169118,17.090835 C33.0636029,15.8590631 32.7058824,14.6786151 32.2459559,13.498167 C31.7860294,12.3177189 31.0705882,11.2399185 30.2529412,10.1621181 C29.4352941,9.13564155 28.4132353,8.26313646 27.3400735,7.44195519 C26.2158088,6.67209776 24.9893382,6.05621181 23.7117647,5.59429735 L22.7408088,5.28635438 C22.4341912,5.18370672 22.0764706,5.13238289 21.7698529,5.08105906 C21.1055147,4.92708758 20.3389706,4.87576375 19.6746324,4.82443992 C18.3459559,4.82443992 16.8639706,4.92708758 15.5352941,5.28635438 C14.2066176,5.69694501 12.8779412,6.26150713 11.7025735,7.03136456 C11.3959559,7.23665988 11.1404412,7.44195519 10.8338235,7.64725051 C10.5272059,7.85254582 10.2716912,8.10916497 10.0672794,8.31446029 C9.81176471,8.57107943 9.55625,8.77637475 9.30073529,9.03299389 L8.63639706,9.80285132 C8.43198529,10.0594705 8.22757353,10.3674134 8.02316176,10.6240326 C7.92095588,10.7780041 7.81875,10.8806517 7.71654412,11.0346232 L7.46102941,11.4965377 C7.30772059,11.8044807 7.10330882,12.0610998 7.00110294,12.3690428 C6.84779412,12.6769857 6.74558824,12.9849287 6.64338235,13.2928717 C6.18345588,14.5246436 5.87683824,15.8077393 5.77463235,17.0395112 C5.67242647,17.6040733 5.72352941,18.3226069 5.72352941,18.9384929 L5.72352941,19.0411405 L5.72352941,19.0924644 L5.72352941,19.1437882 C5.72352941,19.1437882 5.72352941,19.0924644 5.72352941,19.1437882 L5.72352941,19.3490835 L5.77463235,19.810998 C5.82573529,20.1189409 5.82573529,20.4268839 5.87683824,20.6835031 C6.18345588,23.0443992 7.00110294,25.0973523 8.07426471,26.8936864 C9.14742647,28.6386965 10.4761029,30.0757637 11.8558824,31.1535642 C13.2356618,32.2313646 14.6154412,32.8472505 15.8419118,33.2065173 C16.1485294,33.309165 16.4040441,33.3604888 16.7106618,33.4631365 C16.9661765,33.5144603 17.2216912,33.5657841 17.4772059,33.6171079 C17.7327206,33.6684318 17.9371324,33.7197556 18.1415441,33.7197556 C18.3459559,33.7710794 18.5503676,33.7710794 18.7036765,33.7710794 C19.3169118,33.8224033 19.6746324,33.8224033 19.6746324,33.8224033 L19.6746324,33.8224033 Z"></path>
                                </g>
                            </g>
                        </g>
                    </g>
                </g>
            </g>
        </g>
    </g>
</svg>