<?xml version="1.0" encoding="UTF-8"?>
<svg width="28px" height="34px" viewBox="0 0 28 34" version="1.1" xmlns="http://www.w3.org/2000/svg" xmlns:xlink="http://www.w3.org/1999/xlink">
    <!-- Generator: sketchtool 57.1 (101010) - https://sketch.com -->
    <title>0B18FEC5-80AF-444B-92EB-A8DDE1949B68</title>
    <desc>Created with sketchtool.</desc>
    <g id="Page-1" stroke="none" stroke-width="1" fill="none" fill-rule="evenodd">
        <g id="Desktop-HD" transform="translate(-693.000000, -2074.000000)" fill="#FF5252">
            <g id="ghost" transform="translate(693.000000, 2074.000000)">
                <path d="M2.08143494,9.02979656 C2.77829601,7.45080489 3.77241023,6.04488046 5.03626644,4.85104563 C5.23520861,4.66317227 5.24303106,4.3507958 5.05370122,4.15331491 C4.86443768,3.95589982 4.54974975,3.94806902 4.35080758,4.13600818 C2.99076174,5.42071976 1.92080952,6.93390639 1.17058342,8.63371609 C0.39384053,10.3936716 0,12.2681278 0,14.2049672 L0,30.2992321 C0,31.6525783 0.747839592,32.8881336 1.95156899,33.5236127 C3.15456917,34.1587629 4.59104964,34.1587629 5.79418241,33.5236127 C6.70483505,33.042907 7.79222206,33.042907 8.70300729,33.5236127 C9.90600747,34.1587629 11.3424879,34.1587629 12.5456207,33.5236127 C13.4563396,33.042907 14.5437266,33.042907 15.4544456,33.5236127 C16.6575784,34.1588287 18.0940588,34.1587629 19.297059,33.5236127 C20.2077779,33.042907 21.2951649,33.042907 22.2058839,33.5236127 C22.8074171,33.8411878 23.4672873,34 24.1271574,34 C24.7870276,34 25.4469641,33.8411878 26.048431,33.5236127 C27.2522267,32.8881336 28,31.6526441 28,30.2992321 L28,25.421566 C28,25.1490016 27.7773916,24.9280283 27.5028103,24.9280283 C27.228229,24.9280283 27.0056206,25.1490016 27.0056206,25.421566 L27.0056206,30.2992321 C27.0056206,31.286834 26.4599052,32.1884287 25.5815367,32.6521567 C24.6708841,33.1329283 23.5834971,33.1329283 22.6727119,32.6521567 C21.4697117,32.0170066 20.0332312,32.0170066 18.8300984,32.6521567 C17.9193795,33.1329283 16.8319925,33.1329283 15.9212736,32.6521567 C14.7182071,32.0170724 13.2817929,32.0170724 12.0786601,32.6521567 C11.1679412,33.1329283 10.0805542,33.1329283 9.16983526,32.6521567 C7.96676879,32.0170066 6.53028832,32.0170066 5.32722185,32.6521567 C4.41650291,33.1329283 3.3291159,33.1329283 2.41839697,32.6521567 C1.53996221,32.1884287 0.994313097,31.286834 0.994313097,30.2992321 L0.994313097,14.2049672 C0.994379389,12.4053313 1.36011213,10.6641302 2.08143494,9.02979656 L2.08143494,9.02979656 Z" id="Path"></path>
                <path d="M27.5085675,24 C27.7799693,24 28,23.7755966 28,23.4988013 L28,14.1128867 C28,6.33100833 21.7923553,0 14.1621118,0 C11.2960117,0 8.54575869,0.886386608 6.20870215,2.56339746 C5.98670569,2.72264499 5.93336888,3.03525933 6.0895789,3.26166749 C6.2457234,3.48807565 6.55231177,3.54247241 6.7742427,3.38315805 C8.94486743,1.82563297 11.4995303,1.0023974 14.1621118,1.0023974 C21.2504035,1.0023974 27.0171349,6.88373025 27.0171349,14.1128867 L27.0171349,23.4988681 C27.0171349,23.7756635 27.2371657,24 27.5085675,24 Z" id="Path"></path>
                <path d="M7,14.4812011 L7,15.5187989 C7,15.7845502 7.22386667,16 7.5,16 C7.77613333,16 8,15.7845502 8,15.5187989 L8,14.4812011 C8,14.2154498 7.77613333,14 7.5,14 C7.22386667,14 7,14.2154498 7,14.4812011 Z" id="Path"></path>
                <path d="M12,16.999969 C12,18.1027568 12.8972209,19 14.0000337,19 C15.1028466,19 16,18.1028188 16,17.000031 C16,15.8972432 15.1028466,15 14.0000337,15 C12.8972209,15 12,15.8971812 12,16.999969 L12,16.999969 Z M14.9876314,16.999969 C14.9876314,17.590073 14.5445894,18.0702143 14.0000337,18.0702143 C13.4554781,18.0702143 13.0124361,17.590135 13.0124361,16.999969 C13.0124361,16.409865 13.4554781,15.9297857 14.0000337,15.9297857 C14.5445894,15.9297857 14.9876314,16.409865 14.9876314,16.999969 L14.9876314,16.999969 Z" id="Shape"></path>
                <path d="M20,14.4812011 L20,15.5187989 C20,15.7845502 20.2238667,16 20.5,16 C20.7761333,16 21,15.7845502 21,15.5187989 L21,14.4812011 C21,14.2154498 20.7761333,14 20.5,14 C20.2238667,14 20,14.2154498 20,14.4812011 Z" id="Path"></path>
            </g>
        </g>
    </g>
</svg>