<?xml version="1.0" encoding="UTF-8"?>
<svg width="756px" height="284px" viewBox="0 0 756 284" version="1.1" xmlns="http://www.w3.org/2000/svg" xmlns:xlink="http://www.w3.org/1999/xlink">
    <!-- Generator: sketchtool 57.1 (101010) - https://sketch.com -->
    <title>759C95B2-0C74-4B60-BBD4-D7BE3ACFDAD2</title>
    <desc>Created with sketchtool.</desc>
    <g id="Page-1" stroke="none" stroke-width="1" fill="none" fill-rule="evenodd">
        <g id="Desktop-HD" transform="translate(-165.000000, -176.000000)">
            <g id="Group" transform="translate(165.000000, 176.000000)">
                <path d="M146.100708,26.6676025 L110.160831,125 L82.8516461,125 L69.5075264,87.8906074 L57.941721,118.345165 L23.086533,118.345165 L0,56.8320872 L28.0371891,56.8320872 L41.4252596,93.9178611 L57.941721,50.6001386 L80.1980404,50.6001386 L96.7333172,91.4221574 L120.308716,26.6676025 L146.100708,26.6676025 Z M124.936167,125 L153.023505,48.8156936 L179.699911,48.8156936 L207.997379,125 L182.915437,125 L179.699911,114.950828 L153.023505,114.950828 L150.292361,125 L124.936167,125 Z M159.302262,96.7029719 L174.000966,96.7029719 C169.537606,82.323412 167.087822,73.7913371 166.651614,71.1067473 C166.215406,73.7913371 163.765622,82.323412 159.302262,96.7029719 Z M213.076552,125 L213.076552,48.8156936 L238.447396,48.8156936 L238.447396,75.5358059 L244.253401,75.5358059 L259.76463,48.8156936 L287.223598,48.8156936 L263.32464,86.9078468 L287.223598,125 L259.76463,125 L244.253401,97.3403155 L238.447396,97.3403155 L238.447396,125 L213.076552,125 Z M349.982978,48.8156936 L349.982978,68.1521671 L318.352089,68.1521671 L318.352089,77.8745647 L346.71142,77.8745647 L346.71142,95.1792858 L318.352089,95.1792858 L318.352089,105.133344 L350,105.133344 L349.982978,125 L293.45456,125 L293.45456,48.8156936 L349.982978,48.8156936 Z M141.388392,3.55271368e-15 L157.828222,26.6699508 L105.179747,26.6699508 L141.388392,3.55271368e-15 Z" id="WAKE" fill="#FF5252"></path>
                <path d="M41,240 L82.2969648,128 L109.432463,128 L137.558522,204.098517 L112.067598,204.098517 L108.629215,193.85058 L83.2228376,193.85058 L66.4153774,240 L41,240 Z M88.5468875,175.833353 L103.289978,175.833353 C98.8110692,161.887902 96.3538876,153.574393 95.9184326,150.892827 C95.4829776,153.574393 93.0257959,161.887902 88.5468875,175.833353 Z M173.207043,128 C193.06811,128 208.222218,134.087881 208.222218,154.09092 C208.222218,174.093959 199.391188,184.099761 174.814297,184.099761 L166.331454,184.099761 L166.331454,204.036133 L141.406376,204.036133 L141.406376,128 L173.207043,128 Z M183.61985,155.322515 C183.61985,148.538104 177.074616,148.538104 172.813566,148.538104 L166.478828,148.538104 L166.478828,163.744877 L172.813566,163.744877 C178.909936,163.744877 183.61985,162.106915 183.61985,155.322515 Z M244.377397,128 C264.238464,128 280,134.087881 280,154.09092 C280,174.093959 272.474952,183.950906 246.592079,183.950906 L238.164221,183.950906 L238.164221,204.098517 L213.184158,204.098517 L213.184158,128 L244.377397,128 Z M255.640492,155.489344 C255.640492,150.892827 250.494192,148.652705 245.634219,148.652705 L238.285721,148.652705 L238.285721,163.559511 L245.808016,163.559511 C251.904385,163.559511 255.640492,160.085862 255.640492,155.489344 Z" id="APP" fill="#EEEEF1" fill-rule="nonzero"></path>
                <path d="M95.671,207.1 L128.413,207.1 C147.459,207.1 162.011,213.734 162.011,234.813 C162.011,255.785 147.459,262.419 128.413,262.419 L120.388,262.419 L120.388,282 L95.671,282 L95.671,207.1 Z M137.508,234.813 C137.508,229.57 133.87,227.43 128.199,227.43 L120.388,227.43 L120.388,242.089 L128.199,242.089 C133.87,242.089 137.508,239.949 137.508,234.813 Z M213.626611,207.1 L238.236611,207.1 L238.236611,252.896 C238.236611,276.008 221.223611,283.712 203.461611,283.712 C185.699611,283.712 168.686611,276.008 168.686611,252.896 L168.686611,207.1 L193.403611,207.1 L193.403611,251.719 C193.403611,258.674 197.041611,261.563 203.461611,261.563 C209.988611,261.563 213.626611,258.674 213.626611,251.719 L213.626611,207.1 Z M248.871222,207.1 L286.321222,207.1 C303.227222,207.1 312.857222,212.985 312.857222,226.039 C312.857222,233.743 309.861222,239.2 302.157222,242.196 C310.931222,244.871 315.853222,250.97 315.853222,260.6 C315.853222,277.613 301.087222,282 285.358222,282 L248.871222,282 L248.871222,207.1 Z M291.243222,257.711 C291.243222,253.752 288.782222,251.612 284.074222,251.612 L273.588222,251.612 L273.588222,263.81 L284.074222,263.81 C288.782222,263.81 291.243222,261.67 291.243222,257.711 Z M289.103222,230.854 C289.103222,227.751 287.070222,225.29 282.897222,225.29 L273.588222,225.29 L273.588222,236.311 L282.897222,236.418 C287.070222,236.418 289.103222,233.85 289.103222,230.854 Z M323.919833,207.1 L348.636833,207.1 L348.636833,260.386 L380.629833,260.386 L380.629833,282 L323.919833,282 L323.919833,207.1 Z M387.733444,207.1 L412.450444,207.1 L412.450444,282 L387.733444,282 L387.733444,207.1 Z M421.908055,228.607 C421.908055,212.878 435.069055,205.388 451.333055,205.388 C461.070055,205.388 471.449055,207.635 478.832055,211.594 L478.832055,232.994 C471.556055,228.393 462.354055,225.718 454.008055,225.825 C448.979055,225.825 447.374055,227.109 447.374055,229.142 C447.374055,236.953 483.754055,233.422 483.754055,259.423 C483.754055,278.576 469.523055,283.712 452.296055,283.712 C440.954055,283.712 430.789055,281.251 422.550055,276.65 L422.550055,254.287 C431.859055,260.386 441.810055,263.061 449.835055,263.061 C456.362055,263.061 458.288055,261.884 458.288055,259.423 C458.288055,251.719 421.908055,254.715 421.908055,228.607 Z M537.081667,207.1 L561.691667,207.1 L561.691667,282 L537.081667,282 L537.081667,255.357 L516.751667,255.357 L516.751667,282 L492.034667,282 L492.034667,207.1 L516.751667,207.1 L516.751667,233.743 L537.081667,233.743 L537.081667,207.1 Z M573.182278,207.1 L597.899278,207.1 L597.899278,282 L573.182278,282 L573.182278,207.1 Z M634.106889,282 L609.389889,282 L609.389889,207.1 L630.254889,207.1 L655.613889,242.303 C655.078889,237.809 654.971889,233.529 654.971889,229.463 L654.971889,207.1 L679.688889,207.1 L679.688889,282 L658.823889,282 L633.464889,246.904 C633.999889,251.398 634.106889,255.571 634.106889,259.53 L634.106889,282 Z M688.0765,244.55 C688.0765,217.051 708.5135,205.388 729.4855,205.388 C738.2595,205.388 746.8195,207.1 753.6675,209.882 L753.6675,231.924 C748.5315,228.714 740.7205,226.895 733.9795,226.895 C723.0655,226.895 713.4355,231.817 713.4355,244.55 C713.4355,258.674 723.9215,261.67 729.3785,261.67 C730.5555,261.67 731.5185,261.563 732.3745,261.456 L732.3745,240.163 L755.4865,240.163 L755.4865,278.683 C747.3545,281.893 738.5805,283.712 730.0205,283.712 C708.4065,283.712 688.0765,271.193 688.0765,244.55 Z" id="PUBLISHING" fill="#EEEEF1" fill-rule="nonzero"></path>
            </g>
        </g>
    </g>
</svg>