<?xml version="1.0" encoding="UTF-8"?>
<svg width="1440px" height="1588px" viewBox="0 0 1440 1588" version="1.1" xmlns="http://www.w3.org/2000/svg" xmlns:xlink="http://www.w3.org/1999/xlink">
    <!-- Generator: Sketch 52.3 (67297) - http://www.bohemiancoding.com/sketch -->
    <title>Group 9</title>
    <desc>Created with Sketch.</desc>
    <defs>
        <polygon id="path-1" points="0.312176111 0.535982143 27.1849715 0.535982143 27.1849715 24.5236086 0.312176111 24.5236086"></polygon>
        <polygon id="path-3" points="0.691254545 0.06875 75.9675273 0.06875 75.9675273 21.9113301 0.691254545 21.9113301"></polygon>
        <polygon id="path-5" points="0.209233421 0.0679017857 68.9671433 0.0679017857 68.9671433 12.8278661 0.209233421 12.8278661"></polygon>
        <polygon id="path-7" points="0 0.388139562 23.44464 0.388139562 23.44464 93.6337303 0 93.6337303"></polygon>
    </defs>
    <g id="Page-1" stroke="none" stroke-width="1" fill="none" fill-rule="evenodd">
        <g id="Desktop-HD" transform="translate(0.000000, -3674.000000)">
            <g id="Group-9" transform="translate(-21.000000, 3674.000000)">
                <g id="Group-54" transform="translate(856.000000, 0.000000)">
                    <g id="Group-3" transform="translate(112.000000, 142.000000)">
                        <mask id="mask-2" fill="white">
                            <use xlink:href="#path-1"></use>
                        </mask>
                        <g id="Clip-2"></g>
                        <path d="M12.4930209,1.431875 L8.29381784,10.8016369 C8.29381784,10.8016369 -0.942675522,20.4475893 0.456474383,22.1012798 C1.85737761,23.7549702 7.45397723,27.8891964 15.0125427,19.0700893 C19.4431841,13.9001488 23.012945,10.7809226 25.2081025,9.08407738 C26.659852,7.96205357 28.2308273,5.709375 26.2583416,3.10282738 L24.5646338,0.535982143 L12.4930209,1.431875 Z" id="Fill-1" fill="#132E32" mask="url(#mask-2)"></path>
                    </g>
                    <polyline id="Fill-140" fill="#462B6E" transform="translate(161.500000, 100.500000) scale(-1, 1) rotate(-180.000000) translate(-161.500000, -100.500000) " points="155.793976 101.469764 152 109.506608 158.451209 115 171 88.3692431 169.283173 86 155.793976 101.469764"></polyline>
                    <path d="M64.0394902,149 L57.5319849,157.012643 C57.5319849,157.012643 46.1641597,163.943536 47.0491113,165.930532 C47.9323345,167.919276 52.1358544,173.448611 61.6853807,166.874224 C67.2837365,163.019068 71.5131828,160.934208 74.0539617,159.866438 C75.7339869,159.162164 77.8305617,157.384878 76.6604206,154.316131 L75.7426291,151.360977 L64.0394902,149 Z" id="Fill-6" fill="#132E32"></path>
                    <path d="M61.9995532,149.276898 L57.9852509,155.581705 C57.9852509,155.581705 46.1568353,161.966607 47.0479337,163.946327 C47.9390321,165.926047 52.1817764,171.436877 61.8164508,164.884822 C67.0863125,161.301477 71.0186547,159.417522 73.4983844,158.445944 C75.4410138,157.683308 76.7767894,155.895117 77,153.823115 L74.637107,146 L61.9995532,149.276898 Z" id="Fill-8" fill="#00131B"></path>
                    <path d="M24.1429414,36.147789 C23.101044,35.954662 16.4199407,33.7758386 14.2372424,32.4081484 C4.43215215,26.2631991 0.169069442,10.0229758 12.9583176,9.1451259 C25.7475657,8.26727599 38.5368139,11.3397507 38.9631221,19.2403998 C39.3894304,27.141049 35.9789642,36.358473 35.9789642,36.358473 C35.9789642,36.358473 30.6245323,37.3434206 24.1429414,36.147789 Z" id="Fill-10" fill="#462B6E"></path>
                    <path d="M39.9620071,18.5533486 C39.8109228,15.7923651 38.1085899,13.6303625 35.4329934,12.0017721 L35.4242094,12 L28,16.256664 C28,16.256664 35.6051591,23.641143 35.4400205,32.7605405 C35.4171822,34.0878683 35.4962379,35.135199 35.6332678,36 C36.4273385,35.9131655 36.8876184,35.8316473 36.8876184,35.8316473 C36.8876184,35.8316473 40.4012054,26.527948 39.9620071,18.5533486" id="Fill-14" fill="#462B6E"></path>
                    <path d="M5.01137387,31 C5.01137387,31 17.5196159,26.7063713 20.15293,24.1445403 C22.7862441,21.5827094 15.818495,16.4829579 21.7171186,16.055986 C23.8185032,15.9039841 25.1930932,19.6459652 27.3945438,19.2582748 C31.3726036,18.5597488 41,17.9380779 41,17.9380779 C41,17.9380779 23.2251298,2.39288758 15.3251875,5.38169037 C7.42524514,8.37049316 -3.30989871,14.7750706 5.01137387,31" id="Fill-16" fill="#462B6E"></path>
                    <path d="M113.225704,2.73391916 C113.225704,2.73391916 129.288278,0.958931303 130.48994,2.92971679 C131.695116,4.90050228 133.639912,9.02323181 129.405984,11.2465413 C125.173813,13.4698509 120.400542,11.4386792 121.082187,12.3133639 C121.762075,13.1898786 125.224761,13.8522967 125.064891,15.4369766 C124.903263,17.0216565 114.516964,15.034402 111.89755,12.296895 C109.278137,9.55938793 113.225704,2.73391916 113.225704,2.73391916" id="Fill-18" fill="#462B6E"></path>
                    <path d="M43.1186774,14.0909285 C47.2608092,13.343327 51.976066,12.828699 57.4971716,13.0529795 C80.7261074,13.9953051 79.2533494,18.9781561 93.8246221,25.9464977 C101.660806,29.694937 113,48.0720254 113,48.0720254 C113,48.0720254 87.8901717,58.5454011 69.9444077,56.8067929 C51.9969069,55.0681847 50.4060505,49.2734037 46.9325648,53.3295766 C45.864023,54.5779041 40.7658959,60.7000254 31.6381836,71.6959404 C23.9767253,84.502488 20.1459961,90.9057617 20.1459961,90.9057617 L11.2163086,87.9375 L22,67.3198242 L26.5258361,45.7961873 C26.5258361,45.7961873 29.5911873,37.0110002 33.064673,35.272392 C36.5381587,33.5337838 39.0442787,16.3337331 39.0442787,16.3337331 L43.1186774,14.0909285 Z" id="Fill-20" fill="#462B6E"></path>
                    <path d="M11.1374399,87 C11.1374399,87 -0.809737337,99.8059337 0.043632463,102.081975 C0.897002263,104.359724 3.0577346,108.628368 7.66593152,106.35062 C12.2758352,104.074578 13.6975493,98.6670593 13.9825748,99.8059337 C14.2658935,100.944808 12.5591539,104.359724 13.9825748,105.213453 C15.4042889,106.067182 20.5245077,95.8224346 19.9561634,91.837228 C19.3861123,87.8537289 11.1374399,87 11.1374399,87" id="Fill-22" fill="#462B6E"></path>
                    <path d="M123.357175,129 C145.206114,112.353768 157.420389,102.601425 160,99.742971 C154.392465,93.4095295 152.154386,90.4796059 153.285761,90.9532003 C153.285761,90.9532003 124.259456,112.683099 123.884903,110.476328 C123.364983,107.413086 118.301407,81.7417998 117.481779,72.8524515 C116.790111,65.3592813 115.588336,43.9164851 106.769559,43.044742 C97.9473231,42.1729989 72.5354111,54.3287791 72.5354111,54.3287791 C72.5354111,54.3287791 49.6845703,63.1699219 47.28125,71.4765625 C44.8779297,79.7832031 60.5424805,94.5004883 65.2963867,101.938477 C70.050293,109.376465 81.9938974,122.741237 81.9938974,122.741237 L102.199394,122.068176 L84.1586914,121.120605 C84.1586914,121.120605 72.5354111,97 64.1938477,82.8671875 C55.8522843,68.734375 90.4042969,63.9492187 90.4042969,63.9492187 L107.130956,113.37114 L123.357175,129 Z" id="Fill-26" fill="#462B6E"></path>
                    <g id="Group-30" transform="translate(39.000000, 0.000000)">
                        <mask id="mask-4" fill="white">
                            <use xlink:href="#path-3"></use>
                        </mask>
                        <g id="Clip-29"></g>
                        <path d="M16.3472545,8.31116987 C20.8088,7.29402244 50.8927091,-0.716233974 53.3402545,0.129919872 C55.7860727,0.977836538 74,3.14425223 74,3.14425223 L72,10.4255022 C72,10.4255022 49.3765726,8.85192308 48.9447545,9 C48.5129363,9.1463141 24.0474364,21.9113301 24.0474364,21.9113301 L0.691254545,17.0953045 L16.3472545,8.31116987 Z" id="Fill-28" fill="#462B6E" mask="url(#mask-4)"></path>
                    </g>
                    <path d="M72,106.979801 L75.8898493,120 C75.8310694,113.354829 76.1854779,107.189721 77.4406026,104.111469 C80.95184,95.5081918 93,74 93,74 L74.0019758,97.4146779 L72,106.979801 Z" id="Fill-41" fill="#000000"></path>
                    <path d="M124.12835,110.949268 C124.704973,114.010293 118.652127,82.020746 117.848246,73.0719242 C117.281799,66.7575768 116.359202,50.6098396 111,45 L112.37372,89.1252609 L121.418221,116.05389 L136,143 C136,143 121.73706,98.2471503 124.12835,110.949268" id="Fill-43" fill="#462B6E"></path>
                    <g id="Group-47" transform="translate(46.000000, 0.000000)">
                        <mask id="mask-6" fill="white">
                            <use xlink:href="#path-5"></use>
                        </mask>
                        <g id="Clip-46"></g>
                    </g>
                    <path d="M109.095129,111.279215 C108.917089,110.748177 103.609066,95.8703797 103.609066,92.8588354 C103.609066,89.8472911 93,74 93,74 L108.087983,113.885494 L125,143 C125,143 117.944744,125.271367 117.414117,124.740329 C116.883489,124.209291 109.273169,111.810253 109.095129,111.279215" id="Fill-52" fill="#FFFFFF"></path>
                </g>
                <g id="Group-22" transform="translate(220.000000, 62.000000)">
                    <path d="M1293.66889,1009.49681 L1293.67295,824.148534 C1293.67295,823.008743 1293.31994,821.935101 1292.68694,821.126053 L1091.96289,564.052378 L1013.08614,390.259746 C1012.7169,389.440522 1012.14883,388.804478 1011.45902,388.42794 L916.065637,241.067508 L732.610881,1.80262503 C731.941368,0.637392622 730.866089,-0.0342697249 729.725889,0.0013487329 C728.58163,0.0369671907 727.534755,0.774778102 726.913934,1.98071731 L600.105254,189.549409 L525.628062,313.520303 C525.364314,314.029138 525.193893,314.57868 525.120855,315.179105 L470.99063,565.318715 L411.144217,666.412125 C410.438185,666.788663 409.861998,667.44506 409.492752,668.289726 L316.05692,866.734789 L235.07695,960.453878 C233.989498,960.453878 232.962912,961.100099 232.313687,962.183917 L1.32461236,1256.97137 C0.537427388,1258.28416 0.415697754,1260.02947 1,1261.5 C1.58430225,1262.96545 2.77319501,1263.88644 4.08381741,1263.88644 C170.576346,1289.03028 296.215074,1303.54209 381,1307.42187 C598.259661,1317.36373 925.687814,1323.58438 1363.28446,1326.08382 C1365.1875,1326.08382 1366.73347,1324.15025 1366.73347,1321.75872 C1366.73347,1319.37228 1365.1875,1317.43871 1363.28446,1317.43871 C931.931568,1315.12514 609.18623,1309.04389 395.048445,1299.19496 C308.672731,1295.22225 180.647821,1280.57104 10.9737147,1255.24133 L236.797395,969.098987 L318.093862,875.379897 C319.34362,875.379897 320.504109,874.525054 321.1087,873.151199 L414.958412,673.759704 L475.458107,572.320286 C476.537443,571.735126 477.308398,570.493568 477.49505,569.0383 L531.807869,317.453598 L605.962818,194.55038 L729.961232,11.9945923 L911.02603,247.087028 C911.387161,247.717983 911.886253,248.22173 912.458382,248.532119 L1007.66917,395.790784 L1086.19696,568.820163 L1086.72851,569.705536 L1286.77494,825.909103 L1286.77494,1011.44056 C1286.77494,1012.67703 1287.20099,1013.86262 1287.93949,1014.68184 L1361,1325 C1362.42424,1326.58248 1364.6032,1326.41456 1365.86513,1324.62346 C1367.12706,1322.83745 1366.99316,1320.10501 1365.56892,1318.52253 L1293.66889,1009.49681 Z" id="Fill-10" fill="#462B6E"></path>
                    <polyline id="Path-15" stroke="#462B6E" points="558.535156 271.5 597.378906 331.109375 717.605469 301.304688 843.605469 355 927.605469 271.5"></polyline>
                </g>
                <g id="Group-21" transform="translate(0.000000, 1201.000000)" fill="#EEEEF1">
                    <path d="M10.2741436,107.871251 C16.4532343,78.4545768 33.8896341,72.333388 62.583343,89.5076845 C77.4871753,57.6432634 111.850658,82.4813392 111.850658,89.5076845 C113.889562,81.7874467 129.754321,64.9735282 152.802554,83.5658878 C149.569091,62.5551486 161.301607,50.052789 188.000101,46.0588089 C219.414218,-5.67898672 262.297313,-13.8290373 316.649388,21.6086573 C343.669359,10.0392281 359.917041,16.6881212 365.392433,41.5553369 C395.10758,40.4899113 405.837348,59.6903376 397.581739,99.1566158 C389.32613,138.622894 356.067015,155.98252 297.804393,151.235493 L10.7432509,151.235493 L10.2741436,107.871251 Z" id="Path-16" stroke="#462B6E" stroke-width="2"></path>
                    <path d="M362.136106,107.262925 C370.182403,98.4489456 379.047838,95.5109525 388.732413,98.4489456 C391.858365,84.7969481 401.345502,77.9709493 417.193822,77.9709493 C427.846303,68.6863384 438.383076,66.9778816 448.804141,72.8455789 C502.62121,43.3799945 546.427243,53.0578728 580.222239,101.879214 C606.020528,104.34197 617.513728,117.478207 614.701841,141.287925 C626.841996,127.682898 640.3307,127.682898 655.167953,141.287925 C671.672871,128.39299 686.841636,129.446155 700.67425,144.447418 C713.869552,128.397134 731.319877,126.518292 753.025226,138.810892 C760.792354,116.971196 775.619505,110.824896 797.50668,120.371992 C823.614442,77.7296471 862.12408,66.6228358 913.035592,87.0515585 C963.026951,70.1392175 998.906987,83.1690788 1020.6757,126.141143 C1034.85911,124.859109 1045.99463,132.789849 1054.08225,149.933361 C1071.76812,134.519488 1088.85479,137.229534 1105.34226,158.063497 C1118.69368,107.631325 1149.91907,96.9905405 1199.01844,126.141143 C1237.44122,117.156181 1260.98248,128.080336 1269.64221,158.913607 C1271.94021,149.269481 1278.39702,137.333433 1289.01265,123.105463 C1310.12844,72.2827872 1343.22919,66.448246 1388.3149,105.60184 C1393.59889,99.3095609 1405.54988,98.2563963 1424.16784,102.442346 C1429.60612,80.8381686 1443.6077,71.9511356 1466.1726,75.7812468 C1470.79908,47.9270823 1495.27315,34 1539.59482,34 C1583.25346,37.9649092 1607.99385,53.8070471 1613.81598,81.5264135 C1666.21701,59.3127909 1696.70306,73.1724741 1705.27414,123.105463 L1704.36143,303 L655.167953,386 L0.274143577,303 L0.735265447,138.810892 L111.635833,107.337651 L362.136106,107.262925 Z" id="Path-17" stroke="#462B6E" stroke-width="2"></path>
                    <path d="M15.6111001,125.511752 L12.2741436,146.548525 L43.8204778,151 L312.076919,133.983769 L371.954673,108.879075 C374.075554,110.995719 373.63965,110.266028 370.646962,106.69 C367.654273,103.113973 363.083421,97.8609842 356.934404,90.9310345 L220.585863,84 L155.900102,97.1626482 L116.463755,101.327586 L68.9081604,107.738437 L15.6111001,125.511752 Z" id="Path-19"></path>
                </g>
                <g id="Group-15" transform="translate(766.747160, 92.336902)">
                    <g id="Group-64" transform="translate(65.834187, 107.500000) rotate(7.000000) translate(-65.834187, -107.500000) translate(15.834187, 6.000000)">
                        <path d="M75.8625601,20 C75.8625601,20 87.8097373,7.19406629 86.9563675,4.918025 C86.1029977,2.64027626 83.9422654,-1.62836831 79.3340685,0.649380434 C74.7241648,2.92542172 73.3024507,8.33294066 73.0174252,7.19406629 C72.7341065,6.05519192 74.4408461,2.64027626 73.0174252,1.78654735 C71.5957111,0.932818433 66.4754923,11.1775654 67.0438366,15.162772 C67.6138877,19.1462711 75.8625601,20 75.8625601,20" id="Fill-1" fill="#462B6E"></path>
                        <path d="M43.9193526,47.9649978 C44.7320921,46.3806579 39.1341417,39.7191912 39.1341417,39.7191912 C39.1341417,39.7191912 39.7577948,38.9278439 40.3847653,37.5047348 C41.2273605,35.5913523 35.3507565,35.3067305 33.4350135,32.5131591 C28.4175913,25.2051238 13.5792908,26.7401074 15.1102265,37.3533752 C16.6411623,47.9666431 21.336806,57.9135997 27.7425199,56.9330529 C31.5176118,56.3555832 34.3970316,56.6105912 36.9712595,55.2746784 C38.7626036,54.3434879 42.4929119,50.7437623 43.9193526,47.9649978" id="Fill-7" fill="#462B6E"></path>
                        <path d="M30.7016025,27.8680692 C30.7016025,27.8680692 29.267082,38.6292697 27.5783214,41.1845163 C25.8895608,43.7381058 20.3804634,39.0551442 21.084254,43.8458172 C21.8890671,49.3225293 26.879582,45.8757634 26.9368281,47.7068578 C26.9738697,48.9397394 30.7689508,54.5904468 30.9827819,56.4414263 C31.3414121,59.5451727 25.9787974,58.9552454 25.9787974,58.9552454 C25.9787974,58.9552454 9.91957647,47.4334365 11.0577641,40.5879607 C12.1959517,33.742485 15.7031185,24.0335422 30.7016025,27.8680692" id="Fill-13" fill="#462B6E"></path>
                        <path d="M68.142816,16.8491469 L75.5396092,19.9471147 C75.5396092,19.9471147 66.3598101,36.7439085 65.8029288,38.0425608 C65.2443751,39.3395734 51.840661,61.5322679 47.2652034,63.493364 C43.5660395,65.0773263 39.156174,53.1803694 39.156174,53.1803694 C39.156174,53.1803694 55.0840847,40.9032156 56.7564011,38.214087 L68.142816,16.8491469 Z" id="Fill-22" fill="#462B6E"></path>
                        <path d="M8,95.4030898 C8,95.4030898 27.946518,64.1505893 28.4852633,60.2246748 C29.0256264,56.2970776 38.1082569,52.0463875 39.8798067,53.1889918 C40.9572973,53.8822952 49.9897743,61.52546 48.9106659,73.8652503 C47.8331754,86.2067235 33.2525464,99.0510801 33.2525464,99.0510801 L8,95.4030898 Z" id="Fill-28" fill="#462B6E"></path>
                        <g id="Group-39" transform="translate(0.000000, 109.000000)">
                            <mask id="mask-8" fill="white">
                                <use xlink:href="#path-7"></use>
                            </mask>
                            <g id="Clip-38"></g>
                            <path d="M22.0192878,5.16751117 C22.6609508,5.89833969 23.5595346,47.5011615 22.401309,51.4842589 C21.2430835,55.4673564 8.90724173,90.0823206 8.90724173,90.0823206 L0.595222652,93.2280253 L7.62511751,43.990888 L0.421119656,1.317108 L22.0192878,5.16751117 Z" id="Fill-37" fill="#462B6E" mask="url(#mask-8)"></path>
                        </g>
                        <path d="M3.11579683,115.319767 C6.18620904,118.199788 38.5278844,112.645461 38.5278844,112.645461 L28.872204,148.680917 L36.9804028,146.067338 C36.9804028,146.067338 58.792605,107.091134 58.9972992,103.799682 C59.2019933,100.508229 50.2783317,91.3164933 9.80947991,92.8815791 C9.80947991,92.8815791 -5.83834398,106.919979 3.11579683,115.319767 Z" id="Fill-42" fill="#462B6E"></path>
                        <path d="M88.0126535,74 C88.0126535,74 94.5123185,73.7582166 99.8711296,70.7762209 C100.056497,70.6735025 100.24355,66.0701356 98.8836254,65.5960505 C98.4926681,65.4601461 93.8669019,65.1109033 92.6401049,65.7082506 C88.5603308,67.7025688 88.9883616,66.5710856 88.9883616,66.5710856 C88.9883616,66.5710856 92.2339812,64.4882715 91.4065672,64.0663357 C90.5791533,63.6459802 87.8357116,65.3242416 86.8111339,66.2629302 C85.4124505,67.5445405 82,70.0666735 82,70.0666735 L87.3335337,73.5480388" id="Fill-46" fill="#462B6E"></path>
                        <path d="M85.0089063,69.306646 L85.3143795,70.5124146 L85.8068999,73.1844668 C85.8068999,73.1844668 54.804171,80.5741672 53.9808913,80.1656554 C53.1576117,79.7571435 30.1585894,75.6606294 28.1646061,70.554231 C24.4647874,61.088194 30.2754951,55.0177076 35.8639172,57.5946005 C41.4506927,60.1714933 55.4715484,70.2576089 56.2948281,70.6661208 C57.1181077,71.0746327 85.8023966,67.2821338 85.8023966,67.2821338 L85.0089063,69.306646 Z" id="Fill-50" fill="#462B6E"></path>
                    </g>
                    <polyline id="Fill-140" fill="#462B6E" transform="translate(52.015047, 153.442884) rotate(-309.000000) translate(-52.015047, -153.442884) " points="46.3090229 154.412647 42.5150469 162.449492 48.9662564 167.942884 61.5150469 141.312127 59.7982197 138.942884 46.3090229 154.412647"></polyline>
                    <polyline id="Fill-140" fill="#462B6E" transform="translate(17.500000, 203.171131) rotate(-309.000000) translate(-17.500000, -203.171131) " points="11.793976 204.140894 8 212.177739 14.4512095 217.671131 27 191.040374 25.2831729 188.671131 11.793976 204.140894"></polyline>
                </g>
                <polygon id="Path-8" fill="#EEEEF1" points="860.70896 206.264762 950.111924 74 1031 179.699697 1002.1282 201.977078 911.73932 184.463777 811.250736 294.869132 804.637568 302.069991 798 303 828.630799 252.473893"></polygon>
            </g>
        </g>
    </g>
</svg>