<?xml version="1.0" encoding="UTF-8"?>
<svg width="1440px" height="863px" viewBox="0 0 1440 863" version="1.1" xmlns="http://www.w3.org/2000/svg" xmlns:xlink="http://www.w3.org/1999/xlink">
    <!-- Generator: sketchtool 57.1 (101010) - https://sketch.com -->
    <title>17732C85-038A-49AB-88FA-DF125F0F0792</title>
    <desc>Created with sketchtool.</desc>
    <defs>
        <rect id="path-1" x="0" y="0" width="1440" height="863"></rect>
        <polygon id="path-3" points="0.5518 0.651667467 252.7148 0.651667467 252.7148 2 0.5518 2"></polygon>
        <path d="M34.8809253,866.66831 C15.6166886,866.66831 0,845.954607 0,820.417618 L0.291521042,315.40496 C23.0635138,205.715688 44.251453,104.66831 44.251453,104.66831 L132.000496,601.75218 L181.700706,406.555441 L217.593178,563.358499 L247.538562,407.129305 L275.916686,536.043196 C279.379864,536.234806 282.853008,536.439631 286.321168,536.631241 L322.303334,315.711509 L339.375056,467.605387 L365.003399,270.055108 L407.691839,544.110638 L408.165223,544.137067 L426.61225,447.52598 L444.376607,546.69407 C493.199936,550.209123 542.117943,554.094181 591.080796,558.342637 L618.427441,448.688855 L633.755117,526.469303 L660.583531,389.481362 L679.743125,559.934982 L697.701819,485.107971 L715.177162,569.892095 C732.916604,571.649622 750.661029,573.440184 768.400471,575.290212 L778.595668,512.693204 L788.197888,577.351671 C795.298648,578.104897 802.404391,578.877944 809.50515,579.644384 L831.001766,447.664732 L857.634473,564.697272 C874.237793,566.547299 863.986425,510.76389 880.574796,512.693204 L892.829051,481.80435 L902.896151,558.342637 C974.068188,566.780085 1043.71286,552.018248 1114.3567,561.724286 L1142.65427,423.203465 L1162.7407,524.809627 L1198.54846,393.444449 L1232.88126,549.375351 C1246.59943,551.397167 1260.30763,553.438805 1273.99092,555.506872 L1289.8717,458.017021 L1301.2977,559.656219 C1305.79734,560.343373 1310.29698,561.037133 1314.79662,561.724286 L1342.2778,392.988549 L1362.07522,569.124397 C1419.39953,578.202747 1476.36506,587.637888 1532.84725,597.409998 L1564.4394,496.709028 L1584.68529,590.214712 L1599.28046,526.474652 L1612.72955,611.509852 C2018.95922,684.545345 2398.42656,773.940252 2715,866.66831 L34.8809253,866.66831 Z" id="path-5"></path>
        <linearGradient x1="31.829514%" y1="103.076253%" x2="31.829514%" y2="55.6641713%" id="linearGradient-7">
            <stop stop-color="#241F2B" offset="0%"></stop>
            <stop stop-color="#3B2859" offset="100%"></stop>
        </linearGradient>
        <polygon id="path-8" points="0.175521739 0.35917191 3.7664313 0.35917191 3.7664313 3.95505618 0.175521739 3.95505618"></polygon>
        <path d="M1.05784615,56.3446154 C-0.227076923,57.6295385 -0.227076923,59.712 1.05784615,60.9969231 L1.05784615,60.9969231 C2.34276923,62.2793846 4.42276923,62.2793846 5.70769231,60.9969231 L5.70769231,60.9969231 L61.5255385,0.529230769 L1.05784615,56.3446154 Z" id="path-10"></path>
        <linearGradient x1="0.00203273696%" y1="50.0010543%" x2="100.000684%" y2="50.0010543%" id="linearGradient-12">
            <stop stop-color="#FFFFFF" offset="0%"></stop>
            <stop stop-color="#FFFFFF" offset="100%"></stop>
        </linearGradient>
        <path d="M1.43410526,40.6425 C0.523789474,41.5625 0.523789474,43.0525 1.43410526,43.9725 L1.43410526,43.9725 C2.34194737,44.895 3.81873684,44.895 4.72905263,43.9725 L4.72905263,43.9725 L44.2832632,0.67 L1.43410526,40.6425 Z" id="path-13"></path>
        <linearGradient x1="-0.000128991931%" y1="49.999634%" x2="99.9966064%" y2="49.999634%" id="linearGradient-15">
            <stop stop-color="#FFFFFF" offset="0%"></stop>
            <stop stop-color="#FFFFFF" offset="100%"></stop>
        </linearGradient>
        <path d="M1.52810526,39.6475789 C0.617789474,40.5578947 0.617789474,42.0322105 1.52810526,42.9425263 L1.52810526,42.9425263 C2.43594737,43.8528421 3.91273684,43.8528421 4.82305263,42.9425263 L4.82305263,42.9425263 L44.3747895,0.0958421053 L1.52810526,39.6475789 Z" id="path-16"></path>
        <linearGradient x1="-0.00241518441%" y1="50.0017827%" x2="100.000003%" y2="50.0017827%" id="linearGradient-18">
            <stop stop-color="#FFFFFF" offset="0%"></stop>
            <stop stop-color="#FFFFFF" offset="100%"></stop>
        </linearGradient>
        <path d="M1861,164.282261 L1861,660.944724 C1861,680.852387 1846.62242,697 1828.88671,697 L0,697 C188.361367,643.993385 367.12465,599.277059 534.886381,561.514573 L565.880291,469.03794 L581.04235,525.078141 L608.98091,439.621985 L642.745738,537.857161 C660.412634,534.086809 677.964839,530.378266 695.365653,526.762437 L733.406136,358.765452 L763.060463,512.927513 C765.744217,512.391834 768.391269,511.871608 771.065847,511.34108 L784.200182,442.372487 L798.426368,505.907035 C808.711795,503.877638 818.942171,501.889447 829.122083,499.916709 L865.731231,359.115704 L898.697815,461.528141 L917.185893,382.319849 L943.38116,478.551382 C967.456951,474.204146 991.207021,470.006281 1014.62678,465.96294 L1040.26695,370.833668 L1065.41624,457.325126 C1073.99966,455.893216 1082.5418,454.476759 1091.02888,453.080905 L1116.14606,302.390452 L1143.50658,444.638819 C1145.16271,444.381281 1146.82801,444.113442 1148.47496,443.850754 L1164.39398,353.084171 L1180.88186,438.813317 C1192.00682,437.103266 1203.05379,435.41897 1213.99525,433.78103 L1238.86928,331.579774 L1255.40304,389.91206 L1273.04699,257.032915 L1297.73752,363.823492 L1311.85361,303.188819 L1343.60906,411.009548 L1371.09345,411.751256 C1404.42245,407.393719 1436.68713,403.386432 1467.84161,399.698492 L1488.44916,302.282286 L1505.44168,377.627513 L1536.23832,148.83103 L1568.19563,322.226005 L1584.48166,199.524749 L1619.82004,383.252136 C1621.27431,383.107915 1622.74234,382.963693 1624.18744,382.819472 L1653.31419,270.790578 L1677.50926,339.079271 L1710.55842,216.841583 L1759.94866,319.537312 L1820.52808,0 C1820.52808,0 1840.03486,78.7726846 1861,164.282261" id="path-19"></path>
        <linearGradient x1="69.2417618%" y1="69.1347557%" x2="70.04322%" y2="51.7552236%" id="linearGradient-21">
            <stop stop-color="#221E26" offset="0%"></stop>
            <stop stop-color="#422A66" offset="100%"></stop>
        </linearGradient>
    </defs>
    <g id="Page-1" stroke="none" stroke-width="1" fill="none" fill-rule="evenodd">
        <g id="Desktop-HD" transform="translate(0.000000, -2522.000000)">
            <g id="Group-23" transform="translate(-391.000000, 2522.000000)">
                <g id="Group-51" transform="translate(391.000000, 0.000000)">
                    <mask id="mask-2" fill="white">
                        <use xlink:href="#path-1"></use>
                    </mask>
                    <use id="Mask" fill="#462B6E" xlink:href="#path-1"></use>
                    <g mask="url(#mask-2)">
                        <g transform="translate(-2.000000, 0.000000)">
                            <g id="Group-14" opacity="0.101678757" stroke="none" stroke-width="1" fill="none" fill-rule="evenodd" transform="translate(722.000000, 254.500000) scale(-1, 1) translate(-722.000000, -254.500000) translate(2.000000, 0.000000)">
                                <polygon id="Fill-1" fill="#FF5252" points="1440 93.6674 1036.929 0.0774 303.849 0.0004 0 0.0004 0 62.9034 1439.715 146.9574"></polygon>
                                <path d="M1205.625,239.0336 L1439.39,239.8006 L1439.39,170.0886 L176.623,130.9936 C176.623,130.9936 811.305,189.6736 864.063,200.0796" id="Fill-3" fill="#FF5252"></path>
                                <path d="M374.561,243.7172 C374.561,243.7172 1028.578,238.6522 1117.215,253.9512" id="Fill-5" fill="#FF5252"></path>
                                <path d="M1036.7109,337.9472 C1036.7109,337.9472 845.1469,365.3582 675.0829,351.6532 C505.0199,337.9472 353.8529,337.9472 353.8529,337.9472" id="Fill-7" fill="#FFFFFF"></path>
                                <path d="M1435.8057,414.7577 C1435.8057,414.7577 1252.4367,409.8707 1168.6827,418.6667" id="Fill-9" fill="#FFFFFF"></path>
                                <g id="Group-13" transform="translate(423.000000, 506.334000)">
                                    <mask id="mask-4" fill="white">
                                        <use xlink:href="#path-3"></use>
                                    </mask>
                                    <g id="Clip-12"></g>
                                    <path d="M252.7148,1.1742 C139.3398,-0.7808 17.1678,3.5382 0.5518,1.3792" id="Fill-11" fill="#FFFFFF" mask="url(#mask-4)"></path>
                                </g>
                            </g>
                            <mask id="mask-6" fill="white">
                                <use xlink:href="#path-5"></use>
                            </mask>
                            <g id="Clip-50" stroke="none" fill="none"></g>
                            <path d="M2943.40801,794 L31.5919938,794 C14.1441869,794 0,779.841462 0,762.38604 L0,-969.38604 C0,-986.845978 14.1441869,-1001 31.5919938,-1001 L2943.40801,-1001 C2960.85581,-1001 2975,-986.845978 2975,-969.38604 L2975,762.38604 C2975,779.841462 2960.85581,794 2943.40801,794" id="Fill-49" stroke="none" fill="url(#linearGradient-7)" fill-rule="evenodd" mask="url(#mask-6)"></path>
                        </g>
                    </g>
                </g>
                <g id="Group-80" opacity="0.3" transform="translate(391.000000, 2.000000)">
                    <g id="Group-70">
                        <path d="M983.727819,286.105192 C983.727819,287.321658 982.745331,288.307714 981.527738,288.307714 C980.312619,288.307714 979.330131,287.321658 979.330131,286.105192 C979.330131,284.888725 980.312619,283.902669 981.527738,283.902669 C982.745331,283.902669 983.727819,284.888725 983.727819,286.105192" id="Fill-1" fill="#FFFFFF"></path>
                        <path d="M224.426403,203.465012 C224.426403,204.681479 223.44144,205.667535 222.226322,205.667535 C221.013678,205.667535 220.028715,204.681479 220.028715,203.465012 C220.028715,202.248546 221.013678,201.26249 222.226322,201.26249 C223.44144,201.26249 224.426403,202.248546 224.426403,203.465012" id="Fill-3" fill="#FFFFFF"></path>
                        <path d="M879.252892,97.1176146 C879.252892,98.3340809 878.270403,99.3201371 877.05281,99.3201371 C875.840166,99.3201371 874.855203,98.3340809 874.855203,97.1176146 C874.855203,95.9011483 875.840166,94.9150921 877.05281,94.9150921 C878.270403,94.9150921 879.252892,95.9011483 879.252892,97.1176146" id="Fill-5" fill="#FFFFFF"></path>
                        <path d="M5.79123878,171.081738 C5.79123878,172.298204 4.8062753,173.284261 3.59115704,173.284261 C2.37603878,173.284261 1.39355009,172.298204 1.39355009,171.081738 C1.39355009,169.865272 2.37603878,168.879216 3.59115704,168.879216 C4.8062753,168.879216 5.79123878,169.865272 5.79123878,171.081738" id="Fill-7" fill="#FFFFFF"></path>
                        <path d="M561.511593,378.503363 C561.511593,379.719829 560.529104,380.705885 559.311511,380.705885 C558.098868,380.705885 557.113904,379.719829 557.113904,378.503363 C557.113904,377.286897 558.098868,376.30084 559.311511,376.30084 C560.529104,376.30084 561.511593,377.286897 561.511593,378.503363" id="Fill-9" fill="#FFFFFF"></path>
                        <path d="M402.412521,56.7222624 C402.412521,59.0015882 400.566333,60.8498242 398.287058,60.8498242 C396.010258,60.8498242 394.164071,59.0015882 394.164071,56.7222624 C394.164071,54.4429365 396.010258,52.592223 398.287058,52.592223 C400.566333,52.592223 402.412521,54.4429365 402.412521,56.7222624" id="Fill-11" fill="#FFFFFF"></path>
                        <path d="M1342.55447,149.772271 C1342.55447,150.988738 1341.57198,151.974794 1340.35439,151.974794 C1339.14174,151.974794 1338.15678,150.988738 1338.15678,149.772271 C1338.15678,148.555805 1339.14174,147.569749 1340.35439,147.569749 C1341.57198,147.569749 1342.55447,148.555805 1342.55447,149.772271" id="Fill-13" fill="#FFFFFF"></path>
                        <path d="M677.32251,44.9985994 C677.32251,45.9920882 676.518205,46.7972848 675.525818,46.7972848 C674.535905,46.7972848 673.7316,45.9920882 673.7316,44.9985994 C673.7316,44.0051107 674.535905,43.199914 675.525818,43.199914 C676.518205,43.199914 677.32251,44.0051107 677.32251,44.9985994" id="Fill-15" fill="#FFFFFF"></path>
                        <path d="M1080.40619,111.673092 C1080.40619,112.666581 1079.60189,113.471778 1078.6095,113.471778 C1077.61711,113.471778 1076.81528,112.666581 1076.81528,111.673092 C1076.81528,110.679603 1077.61711,109.874407 1078.6095,109.874407 C1079.60189,109.874407 1080.40619,110.679603 1080.40619,111.673092" id="Fill-17" fill="#FFFFFF"></path>
                        <path d="M151.846969,185.927334 C151.846969,186.920823 151.042665,187.72602 150.050277,187.72602 C149.060364,187.72602 148.256059,186.920823 148.256059,185.927334 C148.256059,184.933846 149.060364,184.128649 150.050277,184.128649 C151.042665,184.128649 151.846969,184.933846 151.846969,185.927334" id="Fill-19" fill="#FFFFFF"></path>
                        <path d="M105.731127,305.197271 C105.731127,306.188282 104.926823,306.995956 103.934435,306.995956 C102.944522,306.995956 102.140218,306.188282 102.140218,305.197271 C102.140218,304.203782 102.944522,303.398585 103.934435,303.398585 C104.926823,303.398585 105.731127,304.203782 105.731127,305.197271" id="Fill-21" fill="#FFFFFF"></path>
                        <path d="M305.247111,270.686048 C305.247111,271.679537 304.442807,272.484733 303.450419,272.484733 C302.460506,272.484733 301.656202,271.679537 301.656202,270.686048 C301.656202,269.695037 302.460506,268.887362 303.450419,268.887362 C304.442807,268.887362 305.247111,269.695037 305.247111,270.686048" id="Fill-23" fill="#FFFFFF"></path>
                        <path d="M1126.78189,246.221697 C1126.78189,247.212708 1125.97758,248.020382 1124.98519,248.020382 C1123.99281,248.020382 1123.19098,247.212708 1123.19098,246.221697 C1123.19098,245.228208 1123.99281,244.423011 1124.98519,244.423011 C1125.97758,244.423011 1126.78189,245.228208 1126.78189,246.221697" id="Fill-25" fill="#FFFFFF"></path>
                        <path d="M3.59189948,317.390178 C3.59189948,318.383666 2.78759513,319.188863 1.7952073,319.188863 C0.805294261,319.188863 0.000989913043,318.383666 0.000989913043,317.390178 C0.000989913043,316.399166 0.805294261,315.591492 1.7952073,315.591492 C2.78759513,315.591492 3.59189948,316.399166 3.59189948,317.390178" id="Fill-27" fill="#FFFFFF"></path>
                        <path d="M258.004006,32.5601697 C258.004006,33.5536584 257.199702,34.3588551 256.207314,34.3588551 C255.217401,34.3588551 254.413097,33.5536584 254.413097,32.5601697 C254.413097,31.5666809 255.217401,30.7614843 256.207314,30.7614843 C257.199702,30.7614843 258.004006,31.5666809 258.004006,32.5601697" id="Fill-29" fill="#FFFFFF"></path>
                        <path d="M121.193569,91.1911197 C121.193569,92.1846084 120.389265,92.9898051 119.396877,92.9898051 C118.406964,92.9898051 117.602659,92.1846084 117.602659,91.1911197 C117.602659,90.1976309 118.406964,89.3924343 119.396877,89.3924343 C120.389265,89.3924343 121.193569,90.1976309 121.193569,91.1911197" id="Fill-31" fill="#FFFFFF"></path>
                        <g id="Group-35" transform="translate(72.768696, 437.044944)">
                            <mask id="mask-9" fill="white">
                                <use xlink:href="#path-8"></use>
                            </mask>
                            <g id="Clip-34"></g>
                            <path d="M3.7664313,2.1578573 C3.7664313,3.14886854 2.96212696,3.9565427 1.96973913,3.9565427 C0.979826087,3.9565427 0.175521739,3.14886854 0.175521739,2.1578573 C0.175521739,1.16436854 0.979826087,0.35917191 1.96973913,0.35917191 C2.96212696,0.35917191 3.7664313,1.16436854 3.7664313,2.1578573" id="Fill-33" fill="#FFFFFF" mask="url(#mask-9)"></path>
                        </g>
                        <path d="M181.609447,97.1176146 C181.609447,98.1111034 180.805143,98.9163 179.812755,98.9163 C178.822842,98.9163 178.018537,98.1111034 178.018537,97.1176146 C178.018537,96.1241258 178.822842,95.3189292 179.812755,95.3189292 C180.805143,95.3189292 181.609447,96.1241258 181.609447,97.1176146" id="Fill-36" fill="#FFFFFF"></path>
                        <path d="M472.867602,3.93307584 C472.867602,4.92656461 472.063298,5.73176124 471.07091,5.73176124 C470.080997,5.73176124 469.274218,4.92656461 469.274218,3.93307584 C469.274218,2.93958708 470.080997,2.13439045 471.07091,2.13439045 C472.063298,2.13439045 472.867602,2.93958708 472.867602,3.93307584" id="Fill-38" fill="#FFFFFF"></path>
                        <path d="M546.921512,91.1911197 C546.921512,92.1846084 546.117208,92.9898051 545.12482,92.9898051 C544.134907,92.9898051 543.330602,92.1846084 543.330602,91.1911197 C543.330602,90.1976309 544.134907,89.3924343 545.12482,89.3924343 C546.117208,89.3924343 546.921512,90.1976309 546.921512,91.1911197" id="Fill-40" fill="#FFFFFF"></path>
                        <path d="M998.06176,211.869035 C998.06176,212.862524 997.257456,213.667721 996.265068,213.667721 C995.27268,213.667721 994.470851,212.862524 994.470851,211.869035 C994.470851,210.875547 995.27268,210.07035 996.265068,210.07035 C997.257456,210.07035 998.06176,210.875547 998.06176,211.869035" id="Fill-42" fill="#FFFFFF"></path>
                        <path d="M442.980642,217.261871 C442.980642,218.25536 442.176338,219.060556 441.18395,219.060556 C440.194037,219.060556 439.389733,218.25536 439.389733,217.261871 C439.389733,216.27086 440.194037,215.463185 441.18395,215.463185 C442.176338,215.463185 442.980642,216.27086 442.980642,217.261871" id="Fill-44" fill="#FFFFFF"></path>
                        <path d="M1422.03261,354.340031 C1422.03261,355.331043 1421.2283,356.138717 1420.23592,356.138717 C1419.246,356.138717 1418.4417,355.331043 1418.4417,354.340031 C1418.4417,353.346543 1419.246,352.541346 1420.23592,352.541346 C1421.2283,352.541346 1422.03261,353.346543 1422.03261,354.340031" id="Fill-46" fill="#FFFFFF"></path>
                        <path d="M1391.98974,5.73077022 C1391.98974,6.72425899 1391.18543,7.52945562 1390.19057,7.52945562 C1389.20066,7.52945562 1388.39635,6.72425899 1388.39635,5.73077022 C1388.39635,4.73728146 1389.20066,3.93208483 1390.19057,3.93208483 C1391.18543,3.93208483 1391.98974,4.73728146 1391.98974,5.73077022" id="Fill-48" fill="#FFFFFF"></path>
                        <path d="M1323.0366,199.465539 C1323.0366,200.459028 1322.2323,201.264224 1321.23991,201.264224 C1320.24752,201.264224 1319.44322,200.459028 1319.44322,199.465539 C1319.44322,198.474528 1320.24752,197.666853 1321.23991,197.666853 C1322.2323,197.666853 1323.0366,198.474528 1323.0366,199.465539" id="Fill-50" fill="#FFFFFF"></path>
                        <path d="M1253.47195,147.974577 C1253.47195,148.968066 1252.66764,149.773262 1251.67525,149.773262 C1250.68534,149.773262 1249.88104,148.968066 1249.88104,147.974577 C1249.88104,146.983566 1250.68534,146.175892 1251.67525,146.175892 C1252.66764,146.175892 1253.47195,146.983566 1253.47195,147.974577" id="Fill-52" fill="#FFFFFF"></path>
                        <path d="M1360.44591,118.863622 C1360.44591,119.857111 1359.64161,120.662307 1358.64922,120.662307 C1357.6593,120.662307 1356.855,119.857111 1356.855,118.863622 C1356.855,117.870133 1357.6593,117.064937 1358.64922,117.064937 C1359.64161,117.064937 1360.44591,117.870133 1360.44591,118.863622" id="Fill-54" fill="#FFFFFF"></path>
                        <path d="M1222.49361,2.13562921 C1222.49361,3.12911798 1221.6893,3.93431461 1220.69692,3.93431461 C1219.70453,3.93431461 1218.9027,3.12911798 1218.9027,2.13562921 C1218.9027,1.14214045 1219.70453,0.33694382 1220.69692,0.33694382 C1221.6893,0.33694382 1222.49361,1.14214045 1222.49361,2.13562921" id="Fill-56" fill="#FFFFFF"></path>
                        <path d="M849.918056,36.5826843 C849.918056,37.576173 849.113752,38.3813697 848.118889,38.3813697 C847.128976,38.3813697 846.324672,37.576173 846.324672,36.5826843 C846.324672,35.5891955 847.128976,34.7839989 848.118889,34.7839989 C849.113752,34.7839989 849.918056,35.5891955 849.918056,36.5826843" id="Fill-58" fill="#FFFFFF"></path>
                        <path d="M748.188405,92.988814 C748.188405,93.9823028 747.3841,94.7874994 746.391713,94.7874994 C745.399325,94.7874994 744.597495,93.9823028 744.597495,92.988814 C744.597495,91.9953253 745.399325,91.1901287 746.391713,91.1901287 C747.3841,91.1901287 748.188405,91.9953253 748.188405,92.988814" id="Fill-60" fill="#FFFFFF"></path>
                        <path d="M979.329388,128.273026 C979.329388,129.264037 978.525084,130.071711 977.532696,130.071711 C976.542783,130.071711 975.738479,129.264037 975.738479,128.273026 C975.738479,127.279537 976.542783,126.47434 977.532696,126.47434 C978.525084,126.47434 979.329388,127.279537 979.329388,128.273026" id="Fill-62" fill="#FFFFFF"></path>
                        <path d="M516.079781,54.924568 C516.079781,55.9155792 515.275477,56.7232534 514.283089,56.7232534 C513.293176,56.7232534 512.486397,55.9155792 512.486397,54.924568 C512.486397,53.9310792 513.293176,53.1258826 514.283089,53.1258826 C515.275477,53.1258826 516.079781,53.9310792 516.079781,54.924568" id="Fill-64" fill="#FFFFFF"></path>
                        <path d="M360.309787,153.772736 C360.309787,154.763747 359.505483,155.571421 358.513095,155.571421 C357.523182,155.571421 356.718877,154.763747 356.718877,153.772736 C356.718877,152.779247 357.523182,151.974051 358.513095,151.974051 C359.505483,151.974051 360.309787,152.779247 360.309787,153.772736" id="Fill-66" fill="#FFFFFF"></path>
                        <path d="M444.776345,165.925754 C444.776345,166.919243 443.97204,167.72444 442.979653,167.72444 C441.989739,167.72444 441.185435,166.919243 441.185435,165.925754 C441.185435,164.934743 441.989739,164.127069 442.979653,164.127069 C443.97204,164.127069 444.776345,164.934743 444.776345,165.925754" id="Fill-68" fill="#FFFFFF"></path>
                    </g>
                    <g id="Group-73" transform="translate(1377.000000, 186.000000)">
                        <mask id="mask-11" fill="white">
                            <use xlink:href="#path-10"></use>
                        </mask>
                        <g id="Clip-72"></g>
                        <path d="M1.05784615,56.3446154 C-0.227076923,57.6295385 -0.227076923,59.712 1.05784615,60.9969231 L1.05784615,60.9969231 C2.34276923,62.2793846 4.42276923,62.2793846 5.70769231,60.9969231 L5.70769231,60.9969231 L61.5255385,0.529230769 L1.05784615,56.3446154 Z" id="Fill-71" fill="url(#linearGradient-12)" mask="url(#mask-11)"></path>
                    </g>
                    <g id="Group-76" transform="translate(1080.000000, 131.000000)">
                        <mask id="mask-14" fill="white">
                            <use xlink:href="#path-13"></use>
                        </mask>
                        <g id="Clip-75"></g>
                        <path d="M1.43410526,40.6425 C0.523789474,41.5625 0.523789474,43.0525 1.43410526,43.9725 L1.43410526,43.9725 C2.34194737,44.895 3.81873684,44.895 4.72905263,43.9725 L4.72905263,43.9725 L44.2832632,0.67 L1.43410526,40.6425 Z" id="Fill-74" fill="url(#linearGradient-15)" mask="url(#mask-14)"></path>
                    </g>
                    <g id="Group-79" transform="translate(261.000000, 192.000000)">
                        <mask id="mask-17" fill="white">
                            <use xlink:href="#path-16"></use>
                        </mask>
                        <g id="Clip-78"></g>
                        <path d="M1.52810526,39.6475789 C0.617789474,40.5578947 0.617789474,42.0322105 1.52810526,42.9425263 L1.52810526,42.9425263 C2.43594737,43.8528421 3.91273684,43.8528421 4.82305263,42.9425263 L4.82305263,42.9425263 L44.3747895,0.0958421053 L1.52810526,39.6475789 Z" id="Fill-77" fill="url(#linearGradient-18)" mask="url(#mask-17)"></path>
                    </g>
                </g>
                <g id="Group-54" transform="translate(0.000000, 166.000000)">
                    <mask id="mask-20" fill="white">
                        <use xlink:href="#path-19"></use>
                    </mask>
                    <g id="Clip-53"></g>
                    <path d="M1828.87705,697 L-1131.87705,697 C-1149.6181,697 -1164,682.620605 -1164,664.892897 L-1164,-1093.8929 C-1164,-1111.62519 -1149.6181,-1126 -1131.87705,-1126 L1828.87705,-1126 C1846.6181,-1126 1861,-1111.62519 1861,-1093.8929 L1861,664.892897 C1861,682.620605 1846.6181,697 1828.87705,697" id="Fill-52" fill="url(#linearGradient-21)" mask="url(#mask-20)"></path>
                </g>
            </g>
        </g>
    </g>
</svg>