<?xml version="1.0" encoding="UTF-8"?>
<svg width="1440px" height="388px" viewBox="0 0 1440 388" version="1.1" xmlns="http://www.w3.org/2000/svg" xmlns:xlink="http://www.w3.org/1999/xlink">
    <!-- Generator: Sketch 52.3 (67297) - http://www.bohemiancoding.com/sketch -->
    <title>Group 21</title>
    <desc>Created with Sketch.</desc>
    <g id="Page-1" stroke="none" stroke-width="1" fill="none" fill-rule="evenodd">
        <g id="Desktop-HD" transform="translate(0.000000, -4874.000000)" fill="#EEEEF1">
            <g id="Group-9" transform="translate(-21.000000, 3674.000000)">
                <g id="Group-21" transform="translate(0.000000, 1201.000000)">
                    <path d="M10.2741436,107.871251 C16.4532343,78.4545768 33.8896341,72.333388 62.583343,89.5076845 C77.4871753,57.6432634 111.850658,82.4813392 111.850658,89.5076845 C113.889562,81.7874467 129.754321,64.9735282 152.802554,83.5658878 C149.569091,62.5551486 161.301607,50.052789 188.000101,46.0588089 C219.414218,-5.67898672 262.297313,-13.8290373 316.649388,21.6086573 C343.669359,10.0392281 359.917041,16.6881212 365.392433,41.5553369 C395.10758,40.4899113 405.837348,59.6903376 397.581739,99.1566158 C389.32613,138.622894 356.067015,155.98252 297.804393,151.235493 L10.7432509,151.235493 L10.2741436,107.871251 Z" id="Path-16" stroke="#462B6E" stroke-width="2"></path>
                    <path d="M362.136106,107.262925 C370.182403,98.4489456 379.047838,95.5109525 388.732413,98.4489456 C391.858365,84.7969481 401.345502,77.9709493 417.193822,77.9709493 C427.846303,68.6863384 438.383076,66.9778816 448.804141,72.8455789 C502.62121,43.3799945 546.427243,53.0578728 580.222239,101.879214 C606.020528,104.34197 617.513728,117.478207 614.701841,141.287925 C626.841996,127.682898 640.3307,127.682898 655.167953,141.287925 C671.672871,128.39299 686.841636,129.446155 700.67425,144.447418 C713.869552,128.397134 731.319877,126.518292 753.025226,138.810892 C760.792354,116.971196 775.619505,110.824896 797.50668,120.371992 C823.614442,77.7296471 862.12408,66.6228358 913.035592,87.0515585 C963.026951,70.1392175 998.906987,83.1690788 1020.6757,126.141143 C1034.85911,124.859109 1045.99463,132.789849 1054.08225,149.933361 C1071.76812,134.519488 1088.85479,137.229534 1105.34226,158.063497 C1118.69368,107.631325 1149.91907,96.9905405 1199.01844,126.141143 C1237.44122,117.156181 1260.98248,128.080336 1269.64221,158.913607 C1271.94021,149.269481 1278.39702,137.333433 1289.01265,123.105463 C1310.12844,72.2827872 1343.22919,66.448246 1388.3149,105.60184 C1393.59889,99.3095609 1405.54988,98.2563963 1424.16784,102.442346 C1429.60612,80.8381686 1443.6077,71.9511356 1466.1726,75.7812468 C1470.79908,47.9270823 1495.27315,34 1539.59482,34 C1583.25346,37.9649092 1607.99385,53.8070471 1613.81598,81.5264135 C1666.21701,59.3127909 1696.70306,73.1724741 1705.27414,123.105463 L1704.36143,303 L655.167953,386 L0.274143577,303 L0.735265447,138.810892 L111.635833,107.337651 L362.136106,107.262925 Z" id="Path-17" stroke="#462B6E" stroke-width="2"></path>
                    <path d="M15.6111001,125.511752 L12.2741436,146.548525 L43.8204778,151 L312.076919,133.983769 L371.954673,108.879075 C374.075554,110.995719 373.63965,110.266028 370.646962,106.69 C367.654273,103.113973 363.083421,97.8609842 356.934404,90.9310345 L220.585863,84 L155.900102,97.1626482 L116.463755,101.327586 L68.9081604,107.738437 L15.6111001,125.511752 Z" id="Path-19"></path>
                </g>
            </g>
        </g>
    </g>
</svg>