<?xml version="1.0" encoding="UTF-8"?>
<svg width="31px" height="34px" viewBox="0 0 31 34" version="1.1" xmlns="http://www.w3.org/2000/svg" xmlns:xlink="http://www.w3.org/1999/xlink">
    <!-- Generator: sketchtool 57.1 (101010) - https://sketch.com -->
    <title>CCAB4B25-9845-4EF2-BFEA-11CEF9028144</title>
    <desc>Created with sketchtool.</desc>
    <g id="Page-1" stroke="none" stroke-width="1" fill="none" fill-rule="evenodd">
        <g id="Desktop-HD" transform="translate(-705.000000, -1383.000000)" fill="#FF5252">
            <g id="Group-12" transform="translate(302.000000, 1333.000000)">
                <g id="boy-broad-smile" transform="translate(403.000000, 50.000000)">
                    <path d="M8.99991666,20.121418 C9.32546074,20.121418 9.63150218,20.3230853 9.86170002,20.6892951 C9.99188432,20.8963986 10.1624908,21.0000829 10.3331805,20.9999503 C10.503787,20.9999503 10.6744768,20.8963986 10.804661,20.6892951 C11.065113,20.2750883 11.065113,19.6035269 10.804661,19.1891874 C10.3225958,18.4222948 9.68167564,18 9,18 C8.31832436,18 7.67740423,18.4222948 7.19533895,19.1891874 C6.93488702,19.6033943 6.93488702,20.2749557 7.19533895,20.6892951 C7.45579089,21.1036346 7.87793139,21.103502 8.13821663,20.6892951 C8.36833113,20.3230853 8.67437257,20.121418 8.99991666,20.121418 Z" id="Path"></path>
                    <path d="M20.1953349,19.1880559 C19.9348884,19.602533 19.9348884,20.2745325 20.1953349,20.6891422 C20.455698,21.1036193 20.8778298,21.1036193 21.1381929,20.6891422 C21.6133307,19.9326287 22.386586,19.9327614 22.8617237,20.6891422 C22.9919053,20.8963807 23.1625082,21 23.3331944,21 C23.5038807,21 23.6744835,20.8963807 23.8046651,20.6891422 C24.0651116,20.2746651 24.0651116,19.6026657 23.8046651,19.1880559 C22.8097178,17.6040477 21.1905322,17.603915 20.1953349,19.1880559 Z" id="Path"></path>
                    <path d="M22.8671203,26.1782664 C19.0805552,29.6515322 12.9194448,29.6515322 9.13279677,26.1782664 C8.87366798,25.9405779 8.45353759,25.9405779 8.1944088,26.1782664 C7.93519707,26.415955 7.93519707,26.8014 8.1944088,27.0390885 C10.3464054,29.0130295 13.173182,30 15.9999585,30 C18.826818,30 21.6535946,29.0130295 23.8055912,27.0390885 C24.0648029,26.8014 24.0648029,26.416031 23.8055912,26.1782664 C23.5464624,25.9405779 23.1262491,25.9405779 22.8671203,26.1782664 Z" id="Path"></path>
                    <path d="M31,20.370674 C31,18.6290804 29.7099893,17.1768842 28.0138428,16.8740228 L28.0138428,6.14820758 C28.0138428,4.75676 27.3046243,3.46677381 26.1166813,2.69747849 C25.0008344,1.97498685 23.6157357,1.8110137 22.363169,2.24178381 L18.238912,0.875501225 C15.0698048,-0.174455851 11.7339242,-0.282168415 8.5919968,0.563904163 C4.47874307,1.6715644 2.12059366,4.01383182 1.75658236,7.34330413 C1.4344492,7.75796544 1.17849991,8.22367803 1.00458249,8.72617638 L0.684666405,9.65030851 C0.512966063,10.1464755 0.702238798,10.6678877 1.15583645,10.947748 C1.60935199,11.2276083 2.17322872,11.1710272 2.55883599,10.806776 C2.69054683,10.6823135 2.83457476,10.5774861 2.98615717,10.4898093 L2.98615717,16.8740228 C1.2900107,17.1768842 0,18.6290003 0,20.370674 C0,22.1819922 1.39519872,23.6802708 3.19160636,23.8981002 C3.64274059,26.3293266 4.82822019,28.571976 6.64088641,30.3666244 C9.00749356,32.7096932 12.1536088,34 15.5,34 C15.5004106,34 15.5008211,34 15.5012317,34 C18.843353,34 21.9853625,32.7292482 24.348603,30.4228048 C26.1946075,28.6211038 27.3928148,26.3556136 27.8290864,23.8955356 C29.6154761,23.66865 31,22.1749396 31,20.370674 Z M25.390301,3.7660288 C26.2226905,4.30499234 26.7000191,5.17326461 26.7000191,6.14820758 L26.7000191,14.5383271 C24.6610467,14.2290542 23.0954615,12.5040503 23.0954615,10.42866 L23.041102,3.37925735 C23.8432735,3.17288841 24.6797687,3.30592625 25.390301,3.7660288 Z M2.12166114,9.50532932 L2.24934839,9.1365901 C2.58379865,8.17046289 3.32651964,7.38610064 4.28700692,6.98474311 C5.24741209,6.58338557 6.34158093,6.60005537 7.28876575,7.0306652 C9.27805914,7.9349218 11.6829314,7.44604781 13.1368416,5.84189997 L13.2995915,5.66229889 C13.5400213,5.39710478 13.514566,4.99190037 13.2428508,4.757321 C12.9710535,4.52274163 12.5558852,4.5475059 12.3155376,4.81270001 L12.1527876,4.99230109 C11.0813644,6.17441443 9.30926246,6.53457832 7.84344571,5.86826711 C6.55811551,5.28394248 5.07324832,5.26126193 3.76985304,5.80599578 C3.65119833,5.85560447 3.53582819,5.91098348 3.42226454,5.96892707 C4.18584249,3.98209508 6.03389983,2.58295375 8.94155603,1.79995393 C11.8287659,1.02240385 14.8976939,1.12266309 17.816764,2.08967187 L21.7272783,3.38518795 L21.7785174,6.6980706 C20.0372903,9.00868143 17.4978333,10.5728378 14.6039722,11.1106793 C11.6407248,11.6613438 8.61778059,11.078622 6.09179019,9.46982585 C4.85753489,8.68386073 3.30139276,8.71744076 2.12166114,9.50532932 Z M1.31382376,20.370674 C1.31382376,19.339791 2.02074305,18.4675116 2.98615717,18.1899754 L2.98615717,21.6651482 C2.98615717,21.9653649 2.99724256,22.2638986 3.01883854,22.5605089 C2.03683739,22.2933914 1.31382376,21.4131777 1.31382376,20.370674 Z M23.4196475,29.5159836 C21.3045555,31.5803142 18.4923978,32.7173068 15.5011496,32.7176274 C15.5006569,32.7176274 15.5005748,32.7176274 15.5,32.7176274 C12.5083412,32.7176274 9.6941307,31.5628429 7.57649315,29.4663749 C5.46361821,27.3744751 4.29998093,24.603922 4.29998093,21.6650681 L4.29998093,10.1875089 C4.67203939,10.2145973 5.04122387,10.3320874 5.37362128,10.5437458 C8.1856968,12.3347076 11.5508921,12.9834674 14.8495751,12.3703713 C17.5272301,11.8726816 19.9326771,10.5861416 21.7815556,8.68874947 L21.7815556,10.4285799 C21.7815556,13.212036 23.9343379,15.5126289 26.699937,15.8310382 L26.699937,21.7863248 C26.699937,24.706265 25.535068,27.4514127 23.4196475,29.5159836 Z M27.9884696,22.5584252 C28.0047282,22.3024475 28.0138428,22.0451075 28.0138428,21.786405 L28.0138428,18.1899754 C28.9792569,18.4675116 29.6861762,19.339791 29.6861762,20.370674 C29.6861762,21.410533 28.9668577,22.2889835 27.9884696,22.5584252 Z" id="Shape"></path>
                </g>
            </g>
        </g>
    </g>
</svg>