<?xml version="1.0" encoding="UTF-8"?>
<svg width="369px" height="41px" viewBox="0 0 369 41" version="1.1" xmlns="http://www.w3.org/2000/svg" xmlns:xlink="http://www.w3.org/1999/xlink">
    <!-- Generator: Sketch 52.3 (67297) - http://www.bohemiancoding.com/sketch -->
    <title>Fill 8</title>
    <desc>Created with Sketch.</desc>
    <g id="Page-1" stroke="none" stroke-width="1" fill="none" fill-rule="evenodd" opacity="0.1">
        <g id="Desktop-HD" transform="translate(-56.000000, -4588.000000)" fill="#462B6E">
            <g id="Group-21" transform="translate(18.000000, 3883.000000)">
                <g id="Group-26" transform="translate(38.432700, 705.899565)">
                    <path d="M367.927,29.2762347 C367.927,29.2762347 81.448,47.7372347 -1.70530257e-13,35.3572347 C-1.70530257e-13,35.3572347 43.33,36.0092347 53.756,26.2352347 C64.181,16.4622347 81.122,7.01323466 96.76,26.2352347 C96.76,26.2352347 142.045,-29.1487653 197.104,21.0232347 C197.104,21.0232347 203.62,29.8192347 228.38,27.2132347 C253.14,24.6062347 237.828,14.1812347 293.212,24.9322347 C293.212,24.9322347 320.253,33.4022347 335.565,25.2582347 C350.877,17.1132347 349.791,17.9822347 367.927,29.2762347" id="Fill-8"></path>
                </g>
            </g>
        </g>
    </g>
</svg>