<?xml version="1.0" encoding="UTF-8"?>
<svg width="34px" height="34px" viewBox="0 0 34 34" version="1.1" xmlns="http://www.w3.org/2000/svg" xmlns:xlink="http://www.w3.org/1999/xlink">
    <!-- Generator: sketchtool 57.1 (101010) - https://sketch.com -->
    <title>5DC6DC52-0296-4157-B97A-5F15997C166D</title>
    <desc>Created with sketchtool.</desc>
    <g id="Page-1" stroke="none" stroke-width="1" fill="none" fill-rule="evenodd">
        <g id="Desktop-HD" transform="translate(-703.000000, -2624.000000)" fill="#FF5252">
            <g id="cloud-computing" transform="translate(703.000000, 2624.000000)">
                <path d="M14.3333333,29.3205369 L14.3333333,20.5473739 C14.3333333,20.2450046 14.1095333,20 13.8333333,20 L10.5,20 C10.2238,20 10,20.2450046 10,20.5473739 C10,20.8497433 10.2238,21.0947478 10.5,21.0947478 L13.3333333,21.0947478 L13.3333333,29.3205369 C12.379,29.5683879 11.6666667,30.5085573 11.6666667,31.6280464 C11.6666667,32.9359781 12.6386,34 13.8333333,34 C15.0280667,34 16,32.9359781 16,31.6280464 C16,30.5085573 15.2876667,29.5683879 14.3333333,29.3205369 L14.3333333,29.3205369 Z M13.8333333,32.9052522 C13.1900667,32.9052522 12.6666667,32.3322612 12.6666667,31.6280464 C12.6666667,30.9238316 13.1900667,30.3508406 13.8333333,30.3508406 C14.4766,30.3508406 15,30.9238316 15,31.6280464 C15,32.3322612 14.4766,32.9052522 13.8333333,32.9052522 Z" id="Shape"></path>
                <path d="M20.3333148,29.3205369 L20.3333148,20.5473739 C20.3333148,20.2450046 20.1095123,20 19.8333093,20 L16.5,20 C16.2238025,20 16,20.2450046 16,20.5473739 C16,20.8497433 16.2238025,21.0947478 16.5,21.0947478 L19.3333037,21.0947478 L19.3333037,29.3205369 C18.3789598,29.5683879 17.6666185,30.5085573 17.6666185,31.6280464 C17.6666185,32.9359781 18.6385627,34 19.8333093,34 C21.0280559,34 22,32.9359781 22,31.6280464 C22,30.5085573 21.2876588,29.5683879 20.3333148,29.3205369 L20.3333148,29.3205369 Z M19.8333093,32.9052522 C19.1900354,32.9052522 18.6666296,32.3322612 18.6666296,31.6280464 C18.6666296,30.9238316 19.1900354,30.3508406 19.8333093,30.3508406 C20.4765831,30.3508406 20.9999889,30.9238316 20.9999889,31.6280464 C20.9999889,32.3322612 20.4765831,32.9052522 19.8333093,32.9052522 Z" id="Shape"></path>
                <path d="M30.5344828,25.9585757 C29.3708345,25.9585757 28.3935793,26.7873083 28.1359517,27.8975851 L26.9310345,27.8975851 L26.9310345,20.5817028 C26.9310345,20.2603702 26.6763655,20 26.362069,20 L22.5689655,20 C22.254669,20 22,20.2603702 22,20.5817028 C22,20.9030354 22.254669,21.1634056 22.5689655,21.1634056 L25.7931034,21.1634056 L25.7931034,28.4792879 C25.7931034,28.8006205 26.0477724,29.0609907 26.362069,29.0609907 L28.1359517,29.0609907 C28.3935793,30.1712674 29.3708345,31 30.5344828,31 C31.8940069,31 33,29.8692473 33,28.4792879 C33,27.0893284 31.8940069,25.9585757 30.5344828,25.9585757 Z M30.5344828,29.8365944 C29.8024897,29.8365944 29.2068966,29.2276679 29.2068966,28.4792879 C29.2068966,27.7309078 29.8024897,27.1219813 30.5344828,27.1219813 C31.2664759,27.1219813 31.862069,27.7309078 31.862069,28.4792879 C31.862069,29.2276679 31.2664759,29.8365944 30.5344828,29.8365944 Z" id="Shape"></path>
                <path d="M32.7080723,11.9244452 C31.9768553,10.9981357 30.9836936,10.3118548 29.8786213,9.96170238 C29.7541957,7.34124286 28.6886213,4.89630238 26.8518979,3.03792619 C24.915634,1.07887381 22.3475489,0 19.6206043,0 C16.0396809,0 12.7261277,1.90517143 10.8626383,5.00332619 C10.4094979,4.85755238 9.93848936,4.78396429 9.45677447,4.78396429 C7.24048085,4.78396429 5.3346,6.38016905 4.87502128,8.556 C2.02871489,9.30937381 0,11.9562571 0,14.9907881 C0,18.6566857 2.92298723,21.6391071 6.51591915,21.6391071 L7.77659574,21.6391071 L7.77659574,28.047619 L6.62761277,28.047619 C6.38194468,26.9910357 5.45005532,26.202381 4.34042553,26.202381 C3.04401277,26.202381 1.9893617,27.27845 1.9893617,28.6011905 C1.9893617,29.923931 3.04401277,31 4.34042553,31 C5.45005532,31 6.38194468,30.2113452 6.62761277,29.1547619 L8.31914894,29.1547619 C8.61885532,29.1547619 8.86170213,28.9069833 8.86170213,28.6011905 L8.86170213,21.0855357 C8.86170213,20.7797429 8.61885532,20.5319643 8.31914894,20.5319643 L6.51591915,20.5319643 C3.52138723,20.5319643 1.08510638,18.0462071 1.08510638,14.9907881 C1.08510638,12.3540905 2.92219149,10.0685786 5.4532383,9.55641429 C5.68147234,9.51028333 5.8555234,9.32074048 5.88568936,9.0852881 C6.1192766,7.26433333 7.65448511,5.89118095 9.45677447,5.89118095 C9.95259574,5.89118095 10.4334426,5.99252143 10.8859319,6.19232381 C11.1424511,6.30562143 11.4411447,6.20155 11.5762766,5.95214762 C13.1955447,2.9636 16.2779702,1.10714286 19.6206043,1.10714286 C24.6398723,1.10714286 28.7600936,5.27280476 28.8053787,10.3932667 C28.8076213,10.6490905 28.981383,10.8699286 29.2256043,10.9275738 C31.3978426,11.4404762 32.914966,13.3891952 32.914966,15.6663667 C32.914966,18.349269 30.7757872,20.5319643 28.1462851,20.5319643 L27.8510638,20.5319643 C27.5513574,20.5319643 27.3085106,20.7797429 27.3085106,21.0855357 C27.3085106,21.3913286 27.5513574,21.6391071 27.8510638,21.6391071 L28.1462128,21.6391071 C31.3739702,21.6391071 34,18.9597476 34,15.6663667 C34,14.3086405 33.5411447,12.9797 32.7080723,11.9244452 Z M4.34042553,29.8928571 C3.64241277,29.8928571 3.07446809,29.3133786 3.07446809,28.6011905 C3.07446809,27.8890024 3.64241277,27.3095238 4.34042553,27.3095238 C5.0384383,27.3095238 5.60638298,27.8890024 5.60638298,28.6011905 C5.60638298,29.3133786 5.0384383,29.8928571 4.34042553,29.8928571 Z" id="Shape"></path>
                <path d="M26.299608,10 L26.3060505,10 C26.6927863,9.99763843 27.0034261,9.7870854 26.9999715,9.52967377 C26.9895141,8.76191342 26.7717768,8.01062195 26.3528285,7.29668064 C26.2120275,7.05691867 25.8060576,6.93840491 25.4457453,7.03205999 C25.085433,7.12571507 24.907471,7.39599107 25.0481786,7.63581519 C25.4050363,8.24385852 25.5904678,8.88390739 25.5993379,9.53812572 C25.6029793,9.79417013 25.9157666,10 26.299608,10 L26.299608,10 Z" id="Path"></path>
                <path d="M24.0927063,5.83484236 C24.1940126,5.94373484 24.3404046,6 24.4879578,6 C24.6029265,6 24.7185099,5.965865 24.8139413,5.8958367 C25.0320606,5.73589329 25.0628692,5.44929264 24.8826629,5.25563864 C23.5485352,3.82215036 21.5910632,3 19.5123378,3 C19.2293224,3 19,3.20353678 19,3.45472918 C19,3.70592158 19.2293224,3.90945837 19.5123378,3.90945837 C21.2843436,3.90945837 22.9538135,4.61119644 24.0927063,5.83484236 L24.0927063,5.83484236 Z" id="Path"></path>
            </g>
        </g>
    </g>
</svg>