<?xml version="1.0" encoding="UTF-8"?>
<svg width="17px" height="34px" viewBox="0 0 17 34" version="1.1" xmlns="http://www.w3.org/2000/svg" xmlns:xlink="http://www.w3.org/1999/xlink">
    <!-- Generator: sketchtool 57.1 (101010) - https://sketch.com -->
    <title>F814F2DF-6E3D-42C1-B828-8FCAA785F328</title>
    <desc>Created with sketchtool.</desc>
    <g id="Page-1" stroke="none" stroke-width="1" fill="none" fill-rule="evenodd">
        <g id="Desktop-HD" transform="translate(-1247.000000, -5890.000000)" fill-rule="nonzero">
            <g id="Group-16" transform="translate(165.000000, 5887.000000)">
                <g id="Facebook" transform="translate(1070.000000, 0.000000)">
                    <g id="Group">
                        <rect id="Rectangle" fill="#000000" opacity="0" x="0" y="0" width="40" height="40"></rect>
                        <path d="M23.0301562,3.13710938 C21.9696484,3.13710938 20.9680859,3.255 19.7897266,3.72632813 C17.3741406,4.72785156 16.1958594,6.96675781 16.1958594,10.5605859 L16.1958594,14.0366406 L12.8376953,14.0366406 L12.8376953,19.8103906 L16.1958594,19.8103906 L16.1958594,36.4835547 L23.0301172,36.4835547 L23.0301172,19.8103906 L27.6844922,19.8103906 L28.3325391,14.0366406 L23.0300391,14.0366406 L23.0300391,11.4443359 C23.0300391,10.6195312 23.0889453,10.0303906 23.3245703,9.73570313 C23.6191016,9.20550781 24.2083203,8.96980469 25.1509375,8.96980469 L28.2734766,8.96980469 L28.2734766,3.19605469 L23.0299219,3.19605469 L23.0301562,3.13710938 Z" id="Path" fill="#221E26"></path>
                    </g>
                </g>
            </g>
        </g>
    </g>
</svg>