<?xml version="1.0" encoding="UTF-8"?>
<svg width="37px" height="34px" viewBox="0 0 37 34" version="1.1" xmlns="http://www.w3.org/2000/svg" xmlns:xlink="http://www.w3.org/1999/xlink">
    <!-- Generator: sketchtool 57.1 (101010) - https://sketch.com -->
    <title>456696B0-A440-43DE-8296-23DEB7AF5E40</title>
    <desc>Created with sketchtool.</desc>
    <g id="Page-1" stroke="none" stroke-width="1" fill="none" fill-rule="evenodd">
        <g id="Desktop-HD" transform="translate(-702.000000, -3498.000000)" fill="#FF5252">
            <g id="flag" transform="translate(702.000000, 3498.000000)">
                <path d="M36.8281845,32.2179905 L29.0510982,19.4713717 C28.8384203,19.122884 28.469215,18.9148262 28.0634433,18.9148262 C27.6577439,18.9148262 27.2885386,19.1229568 27.0760053,19.4713717 L26.0663094,21.1262874 C25.9092039,21.3837544 25.9888406,21.7209465 26.2441552,21.8793765 C26.4996143,22.0377336 26.833843,21.9574983 26.9910209,21.7000314 L28.0007167,20.0450428 C28.0060644,20.0362978 28.0223242,20.0096256 28.0635879,20.0096256 C28.1048516,20.0096256 28.1211836,20.0362978 28.1265313,20.0450428 L35.9036176,32.7916616 C35.9098324,32.8017912 35.926309,32.8288277 35.9052074,32.8669413 C35.8841058,32.9050549 35.852598,32.9050549 35.8407464,32.9050549 L31.5337128,32.9050549 L19.4875324,13.1619371 C19.3793507,12.9845596 19.2304834,12.8438382 19.0569735,12.7481535 C19.0571903,12.7482264 19.0574071,12.7483721 19.0575517,12.748445 L19.0575517,9.03328344 C19.5092843,9.15680637 19.94931,9.20956778 20.3797965,9.20956778 C21.6178519,9.20956778 22.77721,8.77559785 23.9114196,8.35102878 C25.4830532,7.76270984 26.9675345,7.20703885 28.5731331,7.85635407 C28.7801742,7.94008731 29.0141704,7.9148726 29.1989537,7.78879905 C29.3840261,7.66257975 29.494448,7.45277296 29.494448,7.22758957 L29.494448,1.04364555 C29.494448,0.77109349 29.3340905,0.526161005 29.086147,0.419763675 C27.0480385,-0.456702553 25.2613422,0.211997381 23.5335424,0.8586891 C21.914936,1.46457088 20.3861559,2.03685735 18.7215163,1.28661042 C18.5534987,1.21089341 18.3590318,1.22619714 18.2046723,1.32705598 C18.0503128,1.42798769 17.9571624,1.60084692 17.9571624,1.78638637 L17.9571624,1.80671846 C17.9478401,1.84745552 17.9424925,1.88965008 17.9424925,1.93322926 L17.9424925,12.748445 C17.7692717,12.8441297 17.6205489,12.9847783 17.5124395,13.1619371 L11.793407,22.5353233 L9.92403883,19.4714445 C9.71143325,19.1229568 9.34222797,18.9148991 8.93645626,18.9148991 C8.53075682,18.9148991 8.16155154,19.1229568 7.94894595,19.4714445 L0.171787382,32.2179905 C-0.0481170362,32.5783568 -0.0575115726,33.0317114 0.14714479,33.4011142 C0.351801152,33.770517 0.739650975,34 1.15929769,34 L35.8406742,34 C36.2603209,34 36.6481707,33.770517 36.8528271,33.4011142 C37.0575557,33.0317114 37.0480889,32.5782839 36.8281845,32.2179905 Z M19.0428817,2.56359701 C20.8001659,3.04967248 22.3785203,2.4588758 23.9114196,1.88505896 C25.4279145,1.31736362 26.8647005,0.779692726 28.4088009,1.3281491 L28.4088009,6.64692249 C26.6462414,6.15953527 25.0662972,6.75098783 23.5336147,7.32465891 C22.019649,7.89133401 20.5842361,8.42864053 19.0428817,7.88186028 L19.0428817,2.56359701 Z M6.74109763,32.9051277 L8.60345608,29.8527632 C8.76056163,29.5952963 8.68092487,29.2581042 8.42561028,29.0996742 C8.17022342,28.9413171 7.83592245,29.0215523 7.6788169,29.2790193 L5.46640357,32.9051277 L1.15936996,32.9051277 C1.14751839,32.9051277 1.11601056,32.9051277 1.09490898,32.8670142 C1.07380741,32.8289006 1.09021171,32.8019369 1.09649883,32.7917344 L8.8736574,20.0451885 C8.87900506,20.0364435 8.89526483,20.0097713 8.93652853,20.0097713 C8.97779222,20.0097713 8.99405199,20.0364435 8.99939965,20.0451885 L11.1560962,23.5799119 L9.00265161,27.1093154 C8.84554605,27.3667823 8.92518282,27.7039744 9.18049741,27.8624044 C9.43595653,28.0208344 9.7702575,27.9405263 9.92729079,27.6830593 L18.4371509,13.7356082 C18.4424986,13.7268632 18.4587584,13.700191 18.5000221,13.700191 C18.5412135,13.700191 18.5574733,13.7268632 18.5628932,13.7356082 L30.2589465,32.9051277 L6.74109763,32.9051277 L6.74109763,32.9051277 Z" id="Shape"></path>
            </g>
        </g>
    </g>
</svg>