<?xml version="1.0" encoding="UTF-8"?>
<svg width="40px" height="34px" viewBox="0 0 40 34" version="1.1" xmlns="http://www.w3.org/2000/svg" xmlns:xlink="http://www.w3.org/1999/xlink">
    <!-- Generator: sketchtool 57.1 (101010) - https://sketch.com -->
    <title>C5EB34E6-BA0C-419B-80CD-26DBECF64929</title>
    <desc>Created with sketchtool.</desc>
    <g id="Page-1" stroke="none" stroke-width="1" fill="none" fill-rule="evenodd">
        <g id="Desktop-HD" transform="translate(-1147.000000, -5890.000000)" fill-rule="nonzero">
            <g id="Group-16" transform="translate(165.000000, 5887.000000)">
                <g id="twitter" transform="translate(982.000000, 0.000000)">
                    <g id="Group">
                        <rect id="Rectangle" fill="#000000" opacity="0" x="0" y="0" width="39.9609756" height="39.9609756"></rect>
                        <path d="M39.8843837,7.60757073 C38.3883141,8.26626975 36.8033996,8.70106929 35.1806439,8.89797725 C36.8891617,7.87106411 38.1684027,6.26062803 38.7821268,4.36407153 C37.1986732,5.28816909 35.4437203,5.9608455 33.5755447,6.33547969 C31.041315,3.62552114 27.0021244,2.95717352 23.7300544,4.70638845 C20.4579844,6.45560338 18.7700968,10.185588 19.6158439,13.7981919 C12.8058276,13.476839 6.7700553,10.2066992 2.73066665,5.26319348 C1.99604039,6.5116638 1.61286491,7.93562674 1.62174958,9.38416909 C1.62174958,12.2313886 3.07033495,14.7339447 5.26485854,16.2041756 C3.96422566,16.162775 2.69232334,15.8111179 1.55514798,15.1785106 L1.55514798,15.280078 C1.55362679,19.181277 4.30179492,22.5430123 8.12539836,23.3172293 C6.92373654,23.6392167 5.66515612,23.6875799 4.44232847,23.4587577 C5.52179002,26.7967157 8.60064242,29.0817806 12.1081756,29.1482016 C9.21015578,31.4224454 5.63193931,32.6568187 1.94809756,32.6531122 C1.29873171,32.6531122 0.651030907,32.6148163 -2.84217094e-14,32.5415545 C3.75584707,34.9464139 8.1229224,36.2229614 12.5827122,36.2196358 C27.6579902,36.2196358 35.8916163,23.7384846 35.8916163,12.9323707 C35.8916163,12.5843772 35.8916163,12.2330537 35.8666407,11.8833951 C37.4750346,10.7259366 38.8624043,9.28893747 39.9626407,7.64087153 L39.8843837,7.60757073 L39.8843837,7.60757073 Z" id="Path" fill="#221E26"></path>
                    </g>
                </g>
            </g>
        </g>
    </g>
</svg>